# This file uses centimeters as units for non-parametric coordinates.

g default
v -1.500000 0.000000 0.000000
v 1.500000 0.000000 0.000000
v -1.500000 3.000000 0.000000
v 1.500000 3.000000 0.000000
v -0.543113 2.292312 0.455601
v 0.298373 2.641871 0.455601
v -0.543113 2.292312 -0.455601
v 0.298373 2.641871 -0.455601
v 0.390457 2.680123 0.000000
v -0.635196 2.254060 0.000000
vt 0.000000 0.000000
vt 1.000000 0.000000
vt 0.000000 1.000000
vt 1.000000 1.000000
vt 0.270581 0.878971
vt 0.581844 0.986121
vt 0.623036 0.866462
vt 0.311774 0.759311
vt 0.581844 0.986121
vt 0.270581 0.878971
vn 0.000000 0.000000 1.000000
vn 0.000000 0.000000 1.000000
vn 0.000000 0.000000 1.000000
vn 0.000000 0.000000 1.000000
vn -0.383624 0.923490 -0.000000
vn -0.383624 0.923490 -0.000000
vn -0.383624 0.923490 -0.000000
vn -0.383624 0.923490 -0.000000
vn -0.383624 0.923490 0.000000
vn -0.383624 0.923490 0.000000
vn -0.383624 0.923490 0.000000
vn -0.383624 0.923490 0.000000
s off
g polySurface1
f 1/1/1 2/2/2 4/4/3 3/3/4
f 5/5/5 6/6/6 9/7/7 10/8/8
f 10/8/9 9/7/10 8/9/11 7/10/12
