# This file uses centimeters as units for non-parametric coordinates.

g default
v -6.331818 29.162310 -11.324646
v -17.330353 17.172405 36.499123
v 31.252022 15.354607 40.309864
v 39.144329 4.955532 -9.050304
v -9.365898 33.442200 8.978830
v 39.686459 21.452297 7.583661
v 31.144016 19.634499 -40.393372
v -18.613277 9.235421 -35.605228
v 11.149200 29.254454 6.635872
v -3.261444 17.264551 -40.272694
v -47.229744 15.446754 -19.259426
v -29.360939 5.047678 27.424839
v 4.248871 41.641495 16.095055
v 33.197739 26.258394 -39.814743
v -25.951588 23.926149 -60.074684
v -51.531715 10.584091 -1.263182
v 3.290327 41.482468 -15.632526
v -45.620750 26.719803 19.840679
v -3.626273 24.481623 62.696320
v 43.646069 11.677676 23.283516
v -15.957380 45.762360 0.751083
v 30.686554 30.999693 39.156624
v 61.589966 28.761513 -12.274111
v 11.545868 15.957567 -48.101917
v 3.953321 53.330315 12.064577
v 23.498541 41.598049 -31.795296
v -22.439983 39.819309 -44.580479
v -39.290844 29.643690 1.338296
v 2.614908 53.238167 -12.423567
v -36.255978 41.505901 15.767895
v -2.881891 39.727165 49.826363
v 34.686649 29.551544 18.504002
v -12.681737 57.518059 0.596904
v 24.387384 45.785793 31.118767
v 48.947121 44.007053 -9.754550
v 9.175797 33.831432 -38.227821
v -11.161570 67.713219 -6.049969
v 4.771193 55.980957 39.247398
v 46.934357 54.202217 16.974625
v 27.629286 44.026592 -27.967552
v 10.194927 63.656620 -10.917364
v -46.103024 49.852871 -6.192106
v -33.230255 47.760067 48.414913
v 23.662125 35.787811 39.744507
v -2.858332 63.525478 12.369829
v 36.558578 51.793209 -15.052988
v 3.859652 50.014473 -49.760170
v -34.316639 39.838848 -19.181488
v -7.821598 75.957146 -7.468879
v -4.854787 65.963036 33.327225
v 34.782852 64.447815 24.448223
v 28.964670 55.779732 -16.810047
v 9.197391 71.677254 -5.689423
v -31.031681 61.683144 -13.088449
v -32.417294 60.167927 27.507847
v 8.976887 51.499840 32.263683
v -5.115636 71.769402 9.528475
v 33.416325 61.775291 -4.197845
v 14.299989 60.260075 -40.038391
v -23.917934 51.591988 -23.440609
v -0.327594 77.550682 -8.624920
v -21.305382 69.574577 16.387056
v 6.329506 68.365318 33.335148
v 25.931290 61.447487 6.473545
v 8.429609 75.169327 1.854252
v -10.495720 67.193214 -24.744589
v -33.854961 65.983955 -2.266363
v -12.793169 59.066128 23.466429
v -10.285568 75.476723 3.267381
v 26.845383 65.503693 20.219269
v 38.067146 63.991669 -18.730682
v -0.834672 55.341866 -33.408195
vt 0.000000 0.000000
vt 1.000000 0.000000
vt 1.000000 1.000000
vt 0.000000 1.000000
vt 0.000000 0.000000
vt 1.000000 0.000000
vt 1.000000 1.000000
vt 0.000000 1.000000
vt 0.000000 0.000000
vt 1.000000 0.000000
vt 1.000000 1.000000
vt 0.000000 1.000000
vt 0.000000 0.000000
vt 1.000000 0.000000
vt 1.000000 1.000000
vt 0.000000 1.000000
vt 0.000000 0.000000
vt 1.000000 0.000000
vt 1.000000 1.000000
vt 0.000000 1.000000
vt 0.000000 0.000000
vt 1.000000 0.000000
vt 1.000000 1.000000
vt 0.000000 1.000000
vt 0.000000 0.000000
vt 1.000000 0.000000
vt 1.000000 1.000000
vt 0.000000 1.000000
vt 0.000000 0.000000
vt 1.000000 0.000000
vt 1.000000 1.000000
vt 0.000000 1.000000
vt 0.000000 0.000000
vt 1.000000 0.000000
vt 1.000000 1.000000
vt 0.000000 1.000000
vt 0.000000 0.000000
vt 1.000000 0.000000
vt 1.000000 1.000000
vt 0.000000 1.000000
vt 0.000000 0.000000
vt 1.000000 0.000000
vt 1.000000 1.000000
vt 0.000000 1.000000
vt 0.000000 0.000000
vt 1.000000 0.000000
vt 1.000000 1.000000
vt 0.000000 1.000000
vt 0.000000 0.000000
vt 1.000000 0.000000
vt 1.000000 1.000000
vt 0.000000 1.000000
vt 0.000000 0.000000
vt 1.000000 0.000000
vt 1.000000 1.000000
vt 0.000000 1.000000
vt 0.000000 0.000000
vt 1.000000 0.000000
vt 1.000000 1.000000
vt 0.000000 1.000000
vt 0.000000 0.000000
vt 1.000000 0.000000
vt 1.000000 1.000000
vt 0.000000 1.000000
vt 0.000000 0.000000
vt 1.000000 0.000000
vt 1.000000 1.000000
vt 0.000000 1.000000
vt 0.000000 0.000000
vt 1.000000 0.000000
vt 1.000000 1.000000
vt 0.000000 1.000000
vn 0.255259 0.964185 0.072037
vn 0.016895 0.968918 0.246803
vn 0.255259 0.964185 0.072037
vn 0.471318 0.875199 -0.109025
vn 0.005456 0.964185 -0.265173
vn 0.234601 0.968918 -0.078483
vn 0.005456 0.964185 -0.265173
vn -0.224166 0.875199 -0.428691
vn -0.257046 0.964185 0.065374
vn -0.138137 0.968918 -0.205220
vn -0.257046 0.964185 0.065374
vn -0.353493 0.875199 0.330256
vn -0.229273 0.964186 -0.133344
vn 0.045109 0.968918 -0.243233
vn -0.229273 0.964186 -0.133344
vn -0.483619 0.875199 -0.011802
vn 0.145012 0.964185 0.222076
vn -0.149499 0.968918 0.197097
vn 0.145012 0.964185 0.222076
vn 0.426852 0.875199 0.227649
vn 0.178417 0.964185 -0.196249
vn 0.228385 0.968918 0.095065
vn 0.178417 0.964185 -0.196249
vn 0.112859 0.875199 -0.470414
vn -0.236683 0.964185 -0.119697
vn 0.030797 0.968918 -0.245456
vn -0.236683 0.964185 -0.119697
vn -0.483481 0.875199 0.016521
vn 0.145012 0.964185 0.222076
vn -0.149499 0.968918 0.197097
vn 0.145012 0.964185 0.222076
vn 0.426852 0.875199 0.227649
vn 0.178417 0.964186 -0.196249
vn 0.228385 0.968918 0.095065
vn 0.178417 0.964186 -0.196249
vn 0.112859 0.875199 -0.470414
vn 0.254213 0.964185 -0.075643
vn 0.146266 0.968918 0.199508
vn 0.254213 0.964185 -0.075643
vn 0.339947 0.875199 -0.344184
vn 0.009209 0.964185 0.265069
vn -0.229904 0.968918 0.091330
vn 0.009209 0.964185 0.265069
vn 0.247519 0.875199 0.415645
vn -0.140624 0.964185 -0.224881
vn 0.153340 0.968918 -0.194124
vn -0.140624 0.964185 -0.224881
vn -0.422300 0.875199 -0.235986
vn 0.265155 0.964185 -0.006256
vn 0.088763 0.968918 0.230908
vn 0.265155 0.964185 -0.006256
vn 0.418377 0.875199 -0.242873
vn -0.060698 0.964185 0.258190
vn -0.245817 0.968918 0.027774
vn -0.060698 0.964185 0.258190
vn 0.129725 0.875199 0.466045
vn -0.076658 0.964185 -0.253909
vn 0.198922 0.968918 -0.147062
vn -0.076658 0.964185 -0.253909
vn -0.345539 0.875199 -0.338569
vn 0.194623 0.964186 0.180190
vn -0.097133 0.968918 0.227514
vn 0.194623 0.964186 0.180190
vn 0.469371 0.875199 0.117120
vn -0.223382 0.964185 0.142992
vn -0.195733 0.968918 -0.151280
vn -0.223382 0.964185 0.142992
vn -0.231511 0.875199 0.424770
vn 0.121839 0.964185 -0.235588
vn 0.245167 0.968918 0.033021
vn 0.121839 0.964185 -0.235588
vn -0.012136 0.875199 -0.483610
s 1
g polySurface20 group1
f 1/1/1 2/2/2 3/3/3
f 1/1/1 3/3/3 4/4/4
s 2
f 5/5/5 6/6/6 7/7/7
f 5/5/5 7/7/7 8/8/8
s 3
f 9/9/9 10/10/10 11/11/11
f 9/9/9 11/11/11 12/12/12
s 4
f 13/13/13 14/14/14 15/15/15
f 13/13/13 15/15/15 16/16/16
s 5
f 17/17/17 18/18/18 19/19/19
f 17/17/17 19/19/19 20/20/20
s 6
f 21/21/21 22/22/22 23/23/23
f 21/21/21 23/23/23 24/24/24
s 7
f 25/25/25 26/26/26 27/27/27
f 25/25/25 27/27/27 28/28/28
s 8
f 29/29/29 30/30/30 31/31/31
f 29/29/29 31/31/31 32/32/32
s 9
f 33/33/33 34/34/34 35/35/35
f 33/33/33 35/35/35 36/36/36
s 10
f 37/37/37 38/38/38 39/39/39
f 37/37/37 39/39/39 40/40/40
s 11
f 41/41/41 42/42/42 43/43/43
f 41/41/41 43/43/43 44/44/44
s 12
f 45/45/45 46/46/46 47/47/47
f 45/45/45 47/47/47 48/48/48
s 13
f 49/49/49 50/50/50 51/51/51
f 49/49/49 51/51/51 52/52/52
s 14
f 53/53/53 54/54/54 55/55/55
f 53/53/53 55/55/55 56/56/56
s 15
f 57/57/57 58/58/58 59/59/59
f 57/57/57 59/59/59 60/60/60
s 16
f 61/61/61 62/62/62 63/63/63
f 61/61/61 63/63/63 64/64/64
s 17
f 65/65/65 66/66/66 67/67/67
f 65/65/65 67/67/67 68/68/68
s 18
f 69/69/69 70/70/70 71/71/71
f 69/69/69 71/71/71 72/72/72
g default
v -0.886919 44.964085 -0.000000
v -0.443460 44.964085 0.768094
v 0.443459 44.964085 0.768094
v 0.886919 44.964085 -0.000000
v 0.443459 44.964085 -0.768094
v -0.443459 44.964085 -0.768094
v -0.000000 78.993683 0.000000
v -0.604553 19.736984 -1.047117
v -1.209106 19.736984 -0.000000
v -0.604553 19.736984 1.047116
v 0.604553 19.736984 1.047116
v 1.209105 19.736984 0.000000
v 0.604553 19.736984 -1.047116
v 1.625968 2.918916 0.000000
v 0.812984 2.918916 -1.408129
v -0.812984 2.918916 -1.408130
v -1.625968 2.918916 -0.000000
v -0.812984 2.918916 1.408129
v 0.812984 2.918916 1.408129
v 1.149203 -0.113323 -1.990477
v -1.149202 -0.113323 -1.990478
v -2.298405 -0.113323 -0.000000
v -1.149203 -0.113323 1.990477
v 1.149203 -0.113323 1.990477
v 2.298405 -0.113323 0.000000
vt 0.000000 0.000000
vt 0.168611 0.000000
vt 0.334582 0.000000
vt 0.500553 0.000000
vt 0.666524 0.000000
vt 0.832496 0.000000
vt 1.000000 0.000000
vt 0.500553 1.000000
vt 0.000000 0.000000
vt 0.168611 0.000000
vt 0.168611 1.000000
vt 0.000000 1.000000
vt 0.334582 0.000000
vt 0.334582 1.000000
vt 0.500553 0.000000
vt 0.500553 1.000000
vt 0.666524 0.000000
vt 0.666524 1.000000
vt 0.832496 0.000000
vt 0.832496 1.000000
vt 1.000000 0.000000
vt 1.000000 1.000000
vt 0.000000 0.000000
vt 0.168611 0.000000
vt 0.168611 1.000000
vt 0.000000 1.000000
vt 0.334582 0.000000
vt 0.334582 1.000000
vt 0.500553 0.000000
vt 0.500553 1.000000
vt 0.666524 0.000000
vt 0.666524 1.000000
vt 0.832496 0.000000
vt 0.832496 1.000000
vt 1.000000 0.000000
vt 1.000000 1.000000
vt 0.000000 0.000000
vt 0.168611 0.000000
vt 0.168611 0.487603
vt 0.000000 0.487603
vt 0.334582 0.000000
vt 0.334582 0.487603
vt 0.500553 0.000000
vt 0.500553 0.487603
vt 0.666524 0.000000
vt 0.666524 0.487603
vt 0.832496 0.000000
vt 0.832496 0.487603
vt 1.000000 0.000000
vt 1.000000 0.487603
vt 0.761154 0.177934
vt 0.831770 0.177934
vt 0.867078 0.107318
vt 0.725846 0.107318
vt 0.831770 0.036702
vt 0.761154 0.036702
vn -0.999661 0.026054 -0.000000
vn -0.499830 0.026054 0.865731
vn -0.000001 1.000000 -0.000002
vn 0.499830 0.026054 0.865731
vn 0.999661 0.026054 0.000000
vn 0.499830 0.026054 -0.865731
vn -0.499830 0.026054 -0.865731
vn -0.499959 0.012770 -0.865955
vn -0.999918 0.012770 -0.000000
vn -0.999918 0.012770 -0.000000
vn -0.499959 0.012770 -0.865955
vn -0.499959 0.012770 0.865955
vn -0.499959 0.012770 0.865955
vn 0.499959 0.012770 0.865955
vn 0.499959 0.012770 0.865955
vn 0.999918 0.012770 0.000000
vn 0.999918 0.012770 0.000000
vn 0.499959 0.012770 -0.865955
vn 0.499959 0.012770 -0.865955
vn 0.999693 0.024779 0.000000
vn 0.499847 0.024779 -0.865759
vn 0.499847 0.024779 -0.865759
vn 0.999693 0.024779 0.000000
vn -0.499846 0.024779 -0.865760
vn -0.499846 0.024779 -0.865760
vn -0.999693 0.024779 -0.000000
vn -0.999693 0.024779 -0.000000
vn -0.499847 0.024779 0.865760
vn -0.499847 0.024779 0.865760
vn 0.499846 0.024779 0.865760
vn 0.499846 0.024779 0.865760
vn 0.488141 0.216503 -0.845485
vn -0.488141 0.216503 -0.845485
vn -0.488141 0.216503 -0.845485
vn 0.488141 0.216503 -0.845485
vn -0.976282 0.216503 -0.000000
vn -0.976282 0.216503 -0.000000
vn -0.488141 0.216503 0.845485
vn -0.488141 0.216503 0.845485
vn 0.488141 0.216503 0.845485
vn 0.488141 0.216503 0.845485
vn 0.976282 0.216503 0.000000
vn 0.976282 0.216503 0.000000
vn 0.000000 -1.000000 0.000000
vn 0.000000 -1.000000 0.000000
vn 0.000000 -1.000000 0.000000
vn 0.000000 -1.000000 0.000000
vn 0.000000 -1.000000 -0.000000
vn 0.000000 -1.000000 -0.000000
vn 0.000000 -1.000000 -0.000000
vn 0.000000 -1.000000 -0.000000
s 1
g group1 polySurface1
f 73/73/73 74/74/74 79/80/75
f 74/74/74 75/75/76 79/80/75
f 75/75/76 76/76/77 79/80/75
f 76/76/77 77/77/78 79/80/75
f 77/77/78 78/78/79 79/80/75
f 78/78/79 73/79/73 79/80/75
s 2
f 80/81/80 81/82/81 73/83/82 78/84/83
f 81/82/81 82/85/84 74/86/85 73/83/82
f 82/85/84 83/87/86 75/88/87 74/86/85
f 83/87/86 84/89/88 76/90/89 75/88/87
f 84/89/88 85/91/90 77/92/91 76/90/89
f 85/91/90 80/93/80 78/94/83 77/92/91
s 3
f 86/95/92 87/96/93 85/97/94 84/98/95
f 87/96/93 88/99/96 80/100/97 85/97/94
f 88/99/96 89/101/98 81/102/99 80/100/97
f 89/101/98 90/103/100 82/104/101 81/102/99
f 90/103/100 91/105/102 83/106/103 82/104/101
f 91/105/102 86/107/92 84/108/95 83/106/103
s 4
f 92/109/104 93/110/105 88/111/106 87/112/107
f 93/110/105 94/113/108 89/114/109 88/111/106
f 94/113/108 95/115/110 90/116/111 89/114/109
f 95/115/110 96/117/112 91/118/113 90/116/111
f 96/117/112 97/119/114 86/120/115 91/118/113
f 97/119/114 92/121/104 87/122/107 86/120/115
s off
f 93/123/116 92/124/117 97/125/118 94/126/119
f 94/126/120 97/125/121 96/127/122 95/128/123
