# This file uses centimeters as units for non-parametric coordinates.

g default
v -0.913538 46.363632 -0.000000
v -0.456769 46.363632 0.791147
v 0.456769 46.363632 0.791147
v 0.913538 46.363632 -0.000000
v 0.456769 46.363632 -0.791147
v -0.456769 46.363632 -0.791147
v -0.000000 81.414566 0.000000
v -0.622697 20.379383 -1.078544
v -1.245395 20.379383 -0.000000
v -0.622698 20.379383 1.078544
v 0.622697 20.379383 1.078544
v 1.245395 20.379383 0.000000
v 0.622698 20.379383 -1.078544
v 1.674768 3.056549 0.000000
v 0.837385 3.056549 -1.450392
v -0.837384 3.056549 -1.450392
v -1.674768 3.056549 -0.000000
v -0.837384 3.056549 1.450392
v 0.837384 3.056549 1.450392
v 1.183695 -0.066696 -2.050218
v -1.183694 -0.066696 -2.050218
v -2.367388 -0.066696 -0.000000
v -1.183694 -0.066696 2.050218
v 1.183694 -0.066696 2.050218
v 2.367388 -0.066696 0.000000
vt 0.000000 0.000000
vt 0.168611 0.000000
vt 0.334582 0.000000
vt 0.500553 0.000000
vt 0.666524 0.000000
vt 0.832496 0.000000
vt 1.000000 0.000000
vt 0.500553 1.000000
vt 0.000000 0.000000
vt 0.168611 0.000000
vt 0.168611 1.000000
vt 0.000000 1.000000
vt 0.334582 0.000000
vt 0.334582 1.000000
vt 0.500553 0.000000
vt 0.500553 1.000000
vt 0.666524 0.000000
vt 0.666524 1.000000
vt 0.832496 0.000000
vt 0.832496 1.000000
vt 1.000000 0.000000
vt 1.000000 1.000000
vt 0.000000 0.000000
vt 0.168611 0.000000
vt 0.168611 1.000000
vt 0.000000 1.000000
vt 0.334582 0.000000
vt 0.334582 1.000000
vt 0.500553 0.000000
vt 0.500553 1.000000
vt 0.666524 0.000000
vt 0.666524 1.000000
vt 0.832496 0.000000
vt 0.832496 1.000000
vt 1.000000 0.000000
vt 1.000000 1.000000
vt 0.000000 0.000000
vt 0.168611 0.000000
vt 0.168611 0.487603
vt 0.000000 0.487603
vt 0.334582 0.000000
vt 0.334582 0.487603
vt 0.500553 0.000000
vt 0.500553 0.487603
vt 0.666524 0.000000
vt 0.666524 0.487603
vt 0.832496 0.000000
vt 0.832496 0.487603
vt 1.000000 0.000000
vt 1.000000 0.487603
vt 0.761154 0.177934
vt 0.831770 0.177934
vt 0.867078 0.107318
vt 0.725846 0.107318
vt 0.831770 0.036702
vt 0.761154 0.036702
vn -0.999661 0.026054 -0.000000
vn -0.499830 0.026054 0.865731
vn -0.000000 1.000000 -0.000003
vn 0.499830 0.026054 0.865731
vn 0.999660 0.026054 0.000000
vn 0.499830 0.026054 -0.865731
vn -0.499830 0.026054 -0.865732
vn -0.499959 0.012770 -0.865955
vn -0.999919 0.012770 -0.000000
vn -0.999919 0.012770 -0.000000
vn -0.499959 0.012770 -0.865955
vn -0.499959 0.012770 0.865955
vn -0.499959 0.012770 0.865955
vn 0.499959 0.012770 0.865955
vn 0.499959 0.012770 0.865955
vn 0.999918 0.012770 0.000000
vn 0.999918 0.012770 0.000000
vn 0.499959 0.012770 -0.865955
vn 0.499959 0.012770 -0.865955
vn 0.999693 0.024779 0.000000
vn 0.499847 0.024779 -0.865759
vn 0.499847 0.024779 -0.865759
vn 0.999693 0.024779 0.000000
vn -0.499846 0.024779 -0.865760
vn -0.499846 0.024779 -0.865760
vn -0.999693 0.024779 -0.000000
vn -0.999693 0.024779 -0.000000
vn -0.499847 0.024779 0.865759
vn -0.499847 0.024779 0.865759
vn 0.499846 0.024779 0.865759
vn 0.499846 0.024779 0.865759
vn 0.488141 0.216503 -0.845485
vn -0.488141 0.216503 -0.845485
vn -0.488141 0.216503 -0.845485
vn 0.488141 0.216503 -0.845485
vn -0.976282 0.216503 -0.000000
vn -0.976282 0.216503 -0.000000
vn -0.488141 0.216503 0.845485
vn -0.488141 0.216503 0.845485
vn 0.488141 0.216503 0.845485
vn 0.488141 0.216503 0.845485
vn 0.976282 0.216503 0.000000
vn 0.976282 0.216503 0.000000
vn 0.000000 -1.000000 0.000000
vn 0.000000 -1.000000 0.000000
vn 0.000000 -1.000000 0.000000
vn 0.000000 -1.000000 0.000000
vn 0.000000 -1.000000 -0.000000
vn 0.000000 -1.000000 -0.000000
vn 0.000000 -1.000000 -0.000000
vn 0.000000 -1.000000 -0.000000
s 1
g polySurface1 group1
f 1/1/1 2/2/2 7/8/3
f 2/2/2 3/3/4 7/8/3
f 3/3/4 4/4/5 7/8/3
f 4/4/5 5/5/6 7/8/3
f 5/5/6 6/6/7 7/8/3
f 6/6/7 1/7/1 7/8/3
s 2
f 8/9/8 9/10/9 1/11/10 6/12/11
f 9/10/9 10/13/12 2/14/13 1/11/10
f 10/13/12 11/15/14 3/16/15 2/14/13
f 11/15/14 12/17/16 4/18/17 3/16/15
f 12/17/16 13/19/18 5/20/19 4/18/17
f 13/19/18 8/21/8 6/22/11 5/20/19
s 3
f 14/23/20 15/24/21 13/25/22 12/26/23
f 15/24/21 16/27/24 8/28/25 13/25/22
f 16/27/24 17/29/26 9/30/27 8/28/25
f 17/29/26 18/31/28 10/32/29 9/30/27
f 18/31/28 19/33/30 11/34/31 10/32/29
f 19/33/30 14/35/20 12/36/23 11/34/31
s 4
f 20/37/32 21/38/33 16/39/34 15/40/35
f 21/38/33 22/41/36 17/42/37 16/39/34
f 22/41/36 23/43/38 18/44/39 17/42/37
f 23/43/38 24/45/40 19/46/41 18/44/39
f 24/45/40 25/47/42 14/48/43 19/46/41
f 25/47/42 20/49/32 15/50/35 14/48/43
s off
f 21/51/44 20/52/45 25/53/46 22/54/47
f 22/54/48 25/53/49 24/55/50 23/56/51
g default
v -5.871608 33.282337 -10.848621
v -17.200243 17.932686 38.410492
v 32.840244 19.060223 42.335609
v 40.969429 5.349143 -8.506020
v 11.987425 39.004837 -2.910329
v -32.752922 23.655190 -26.428406
v -49.311649 24.782722 20.955830
v -2.225073 11.071646 41.783913
v 4.232056 36.186176 11.586978
v 22.601620 20.836525 -35.501842
v -26.336599 21.964062 -46.660141
v -41.770767 8.252982 2.459518
v -10.171263 38.006439 6.979526
v 40.005825 22.656792 13.067072
v 38.648735 23.784327 -37.108768
v -12.765760 10.073250 -39.848228
v 0.143787 41.983181 -15.295876
v -41.725414 22.949194 31.345341
v 10.209082 24.347368 65.651283
v 49.557274 7.345256 15.371973
v 14.753285 47.705685 4.040430
v -19.666004 28.671696 -48.340343
v -66.083801 30.069870 -6.873747
v -27.503727 13.067758 43.997345
v -2.365971 44.887020 15.112467
v 45.839104 25.853035 -24.946285
v -0.556242 27.251207 -66.437996
v -46.795998 10.249095 -22.413290
v -15.226238 46.707287 1.464975
v 35.558002 27.673298 38.199074
v 64.214294 29.071476 -17.054043
v 10.077137 12.069360 -50.898651
v -11.448902 52.052635 -12.565840
v -10.279770 30.899803 57.078705
v 57.956711 32.453621 45.747456
v 51.983494 13.558854 -24.953728
v 15.070401 57.775135 -7.865156
v -52.568825 36.622307 -24.498381
v -59.016907 38.176121 44.371326
v 10.869352 19.281353 56.628868
v 9.500448 54.956470 14.096782
v 18.468651 33.803642 -54.977821
v -50.690216 35.357456 -53.687172
v -55.058983 16.462692 17.131268
v -11.292660 56.776737 12.706437
v 57.843094 35.623909 4.222465
v 39.401329 37.177727 -62.444740
v -30.280180 18.282959 -49.072220
v -17.506313 61.870232 1.801801
v 41.200783 39.971493 43.675571
v 73.747032 41.580101 -20.111145
v 11.204550 22.019051 -58.634983
v 2.722993 67.592735 -17.386856
v -52.739746 45.693996 28.698067
v 0.635883 47.302605 76.437424
v 53.837753 27.741550 25.789524
v 17.582270 64.774071 0.762408
v -34.413509 42.875332 -49.201321
v -75.887299 44.483940 9.176146
v -19.609859 24.922892 56.383121
v 3.632150 66.594337 17.219900
v 39.102371 44.695595 -45.563843
v -27.752300 46.304207 -71.224251
v -59.487965 26.743155 -4.978520
v -14.019367 71.947540 -7.077606
v 9.917484 52.405773 52.653923
v 65.088120 53.841248 20.408791
v 36.656574 36.385563 -38.653267
v 10.419323 77.670036 -11.750443
v -53.441952 58.128273 -3.840564
v -36.335281 59.563744 57.729797
v 28.025089 42.108063 45.303131
v 12.841482 74.851379 9.040548
v -2.157299 55.309612 -53.536327
v -61.429588 56.745087 -29.654469
v -41.886543 39.289402 32.913483
v -5.564618 76.671646 14.685713
v 51.319611 57.129875 -15.397727
v 13.453382 58.565350 -66.872925
v -42.292580 41.109665 -32.390076
v -6.587465 78.539787 -11.348583
v -17.069128 62.211750 41.386597
v 36.261845 63.411156 43.971542
v 43.291397 48.826130 -10.344710
v 12.653439 84.262291 -3.474989
v -35.664032 67.934250 -27.060715
v -51.766190 69.133652 23.846996
v -1.039442 54.548634 44.498062
v 4.867624 81.443626 12.185701
v 22.904560 65.115585 -38.465393
v -29.484016 66.314987 -48.776123
v -44.335373 51.729969 3.941109
v -10.593203 83.263901 7.743974
v 42.951653 66.935860 12.623823
v 39.915909 68.135262 -40.683388
v -14.838357 53.550240 -41.964046
vt 0.000000 0.000000
vt 1.000000 0.000000
vt 1.000000 1.000000
vt 0.000000 1.000000
vt 0.000000 0.000000
vt 1.000000 0.000000
vt 1.000000 1.000000
vt 0.000000 1.000000
vt 0.000000 0.000000
vt 1.000000 0.000000
vt 1.000000 1.000000
vt 0.000000 1.000000
vt 0.000000 0.000000
vt 1.000000 0.000000
vt 1.000000 1.000000
vt 0.000000 1.000000
vt 0.000000 0.000000
vt 1.000000 0.000000
vt 1.000000 1.000000
vt 0.000000 1.000000
vt 0.000000 0.000000
vt 1.000000 0.000000
vt 1.000000 1.000000
vt 0.000000 1.000000
vt 0.000000 0.000000
vt 1.000000 0.000000
vt 1.000000 1.000000
vt 0.000000 1.000000
vt 0.000000 0.000000
vt 1.000000 0.000000
vt 1.000000 1.000000
vt 0.000000 1.000000
vt 0.000000 0.000000
vt 1.000000 0.000000
vt 1.000000 1.000000
vt 0.000000 1.000000
vt 0.000000 0.000000
vt 1.000000 0.000000
vt 1.000000 1.000000
vt 0.000000 1.000000
vt 0.000000 0.000000
vt 1.000000 0.000000
vt 1.000000 1.000000
vt 0.000000 1.000000
vt 0.000000 0.000000
vt 1.000000 0.000000
vt 1.000000 1.000000
vt 0.000000 1.000000
vt 0.000000 0.000000
vt 1.000000 0.000000
vt 1.000000 1.000000
vt 0.000000 1.000000
vt 0.000000 0.000000
vt 1.000000 0.000000
vt 1.000000 1.000000
vt 0.000000 1.000000
vt 0.000000 0.000000
vt 1.000000 0.000000
vt 1.000000 1.000000
vt 0.000000 1.000000
vt 0.000000 0.000000
vt 1.000000 0.000000
vt 1.000000 1.000000
vt 0.000000 1.000000
vt 0.000000 0.000000
vt 1.000000 0.000000
vt 1.000000 1.000000
vt 0.000000 1.000000
vt 0.000000 0.000000
vt 1.000000 0.000000
vt 1.000000 1.000000
vt 0.000000 1.000000
vt 0.000000 0.000000
vt 1.000000 0.000000
vt 1.000000 1.000000
vt 0.000000 1.000000
vt 0.000000 0.000000
vt 1.000000 0.000000
vt 1.000000 1.000000
vt 0.000000 1.000000
vt 0.000000 0.000000
vt 1.000000 0.000000
vt 1.000000 1.000000
vt 0.000000 1.000000
vt 0.000000 0.000000
vt 1.000000 0.000000
vt 1.000000 1.000000
vt 0.000000 1.000000
vt 0.000000 0.000000
vt 1.000000 0.000000
vt 1.000000 1.000000
vt 0.000000 1.000000
vt 0.000000 0.000000
vt 1.000000 0.000000
vt 1.000000 1.000000
vt 0.000000 1.000000
vn 0.250474 0.965153 0.075778
vn -0.044141 0.956629 0.287944
vn 0.250474 0.965153 0.075778
vn 0.512056 0.846387 -0.146382
vn -0.137158 0.965153 0.222861
vn -0.267161 0.956629 -0.116125
vn -0.137158 0.965153 0.222861
vn 0.010934 0.846387 0.532455
vn -0.236796 0.965153 -0.111387
vn 0.085534 0.956629 -0.278468
vn -0.236796 0.965153 -0.111387
vn -0.527896 0.846387 0.070384
vn 0.049027 0.965153 -0.257052
vn 0.290989 0.956629 0.013627
vn 0.049027 0.965153 -0.257052
vn -0.199400 0.846387 -0.493830
vn 0.182455 0.965153 0.187589
vn -0.178053 0.956629 0.230559
vn 0.182455 0.965153 0.187589
vn 0.518900 0.846387 0.119879
vn -0.227922 0.965153 0.128574
vn -0.177519 0.956629 -0.230971
vn -0.227922 0.965153 0.128574
vn -0.248266 0.846387 0.471161
vn -0.153245 0.965153 -0.212121
vn 0.209680 0.956629 -0.202224
vn -0.153245 0.965153 -0.212121
vn -0.495960 0.846387 -0.194043
vn 0.167369 0.965153 -0.201165
vn 0.247999 0.956629 0.152829
vn 0.167369 0.965153 -0.201165
vn 0.064666 0.846387 -0.528627
vn 0.261347 0.965153 0.013327
vn 0.026392 0.956629 0.290110
vn 0.261347 0.965153 0.013327
vn 0.461834 0.846387 -0.265214
vn -0.079546 0.965153 0.249303
vn -0.287246 0.956629 -0.048477
vn -0.079546 0.965153 0.249303
vn 0.138645 0.846387 0.514204
vn -0.256633 0.965153 -0.051180
vn 0.016065 0.956629 -0.290864
vn -0.256633 0.965153 -0.051180
vn -0.495484 0.846387 0.195255
vn -0.014221 0.965153 -0.261299
vn 0.285728 0.956629 -0.056743
vn -0.014221 0.965153 -0.261299
vn -0.312294 0.846387 -0.431394
vn 0.166029 0.965153 -0.202272
vn 0.249009 0.956629 0.151178
vn 0.166029 0.965153 -0.202272
vn 0.061152 0.846387 -0.529045
vn 0.153234 0.965153 0.212129
vn -0.209690 0.956629 0.202213
vn 0.153234 0.965153 0.212129
vn 0.495949 0.846387 0.194069
vn -0.193671 0.965153 0.175986
vn -0.224385 0.956629 -0.185773
vn -0.193671 0.965153 0.175986
vn -0.137415 0.846387 0.514534
vn -0.218605 0.965153 -0.143845
vn 0.124164 0.956629 -0.263522
vn -0.218605 0.965153 -0.143845
vn -0.532542 0.846387 -0.005198
vn 0.248939 0.965153 -0.080679
vn 0.128040 0.956629 0.261660
vn 0.248939 0.965153 -0.080679
vn 0.337006 0.846387 -0.412378
vn 0.014516 0.965153 0.261283
vn -0.285664 0.956629 0.057065
vn 0.014516 0.965153 0.261283
vn 0.312781 0.846387 0.431042
vn -0.258023 0.965153 0.043631
vn -0.088640 0.956629 -0.277495
vn -0.258023 0.965153 0.043631
vn -0.393377 0.846387 0.359003
vn -0.106401 0.965153 -0.239078
vn 0.246750 0.956629 -0.154837
vn -0.106401 0.965153 -0.239078
vn -0.445520 0.846387 -0.291788
vn 0.252624 0.965153 0.068270
vn -0.035529 0.956629 0.289133
vn 0.252624 0.965153 0.068270
vn 0.507459 0.846387 -0.161598
vn -0.130447 0.965153 0.226855
vn -0.270508 0.956629 -0.108101
vn -0.130447 0.965153 0.226855
vn 0.026819 0.846387 0.531892
vn -0.240015 0.965153 -0.104271
vn 0.077185 0.956629 -0.280896
vn -0.240015 0.965153 -0.104271
vn -0.525561 0.846387 0.086106
vn 0.041335 0.965153 -0.258401
vn 0.291266 0.956629 0.004937
vn 0.041335 0.965153 -0.258401
vn -0.214048 0.846387 -0.487660
s 1
g group1 polySurface26
f 26/57/52 27/58/53 28/59/54
f 26/57/52 28/59/54 29/60/55
s 2
f 30/61/56 31/62/57 32/63/58
f 30/61/56 32/63/58 33/64/59
s 3
f 34/65/60 35/66/61 36/67/62
f 34/65/60 36/67/62 37/68/63
s 4
f 38/69/64 39/70/65 40/71/66
f 38/69/64 40/71/66 41/72/67
s 5
f 42/73/68 43/74/69 44/75/70
f 42/73/68 44/75/70 45/76/71
s 6
f 46/77/72 47/78/73 48/79/74
f 46/77/72 48/79/74 49/80/75
s 7
f 50/81/76 51/82/77 52/83/78
f 50/81/76 52/83/78 53/84/79
s 8
f 54/85/80 55/86/81 56/87/82
f 54/85/80 56/87/82 57/88/83
s 9
f 58/89/84 59/90/85 60/91/86
f 58/89/84 60/91/86 61/92/87
s 10
f 62/93/88 63/94/89 64/95/90
f 62/93/88 64/95/90 65/96/91
s 11
f 66/97/92 67/98/93 68/99/94
f 66/97/92 68/99/94 69/100/95
s 12
f 70/101/96 71/102/97 72/103/98
f 70/101/96 72/103/98 73/104/99
s 13
f 74/105/100 75/106/101 76/107/102
f 74/105/100 76/107/102 77/108/103
s 14
f 78/109/104 79/110/105 80/111/106
f 78/109/104 80/111/106 81/112/107
s 15
f 82/113/108 83/114/109 84/115/110
f 82/113/108 84/115/110 85/116/111
s 16
f 86/117/112 87/118/113 88/119/114
f 86/117/112 88/119/114 89/120/115
s 17
f 90/121/116 91/122/117 92/123/118
f 90/121/116 92/123/118 93/124/119
s 18
f 94/125/120 95/126/121 96/127/122
f 94/125/120 96/127/122 97/128/123
s 19
f 98/129/124 99/130/125 100/131/126
f 98/129/124 100/131/126 101/132/127
s 20
f 102/133/128 103/134/129 104/135/130
f 102/133/128 104/135/130 105/136/131
s 21
f 106/137/132 107/138/133 108/139/134
f 106/137/132 108/139/134 109/140/135
s 22
f 110/141/136 111/142/137 112/143/138
f 110/141/136 112/143/138 113/144/139
s 23
f 114/145/140 115/146/141 116/147/142
f 114/145/140 116/147/142 117/148/143
s 24
f 118/149/144 119/150/145 120/151/146
f 118/149/144 120/151/146 121/152/147
