# This file uses meters as units for non-parametric coordinates.

g default
v -181.055555 1485.665454 5542.125343
v 5542.126435 1485.665454 181.056392
v -5542.125343 1485.665454 -181.058252
v 181.056665 1485.665454 -5542.127527
v 0.000422 17963.716545 -0.000876
v 4633.818344 10216.650229 4946.808037
v 4946.808037 10216.650229 -4633.817798
v -4633.818344 10216.650229 -4946.810221
v -4946.806944 10216.650229 4633.815613
v -8.463976 21432.748944 259.090842
v -2629.898318 10216.650229 7107.219632
v 2160.414326 10216.650229 7263.715843
v 125.314126 21432.748944 133.777142
v -133.777671 21432.748944 125.312829
v 259.092224 21432.748944 8.463454
v 7107.221816 10216.650229 2629.899684
v 7263.716936 10216.650229 -2160.412688
v 133.778525 21432.748944 -125.314570
v 8.464821 21432.748944 -259.092583
v 2629.898591 10216.650229 -7107.221816
v -2160.414053 10216.650229 -7263.718574
v -125.313273 21432.748944 -133.778874
v -259.091371 21432.748944 -8.465178
v -7107.220724 10216.650229 -2629.901049
v -7263.715843 10216.650229 2160.411049
v 0.000519 15598.001198 -0.000997
v -2680.534441 8850.863819 -2861.593086
v 2861.591174 8850.863819 -2680.535261
v 2680.535261 8850.863819 2861.591174
v -2861.590628 8850.863819 2680.533349
v -9138.763110 16264.266206 2738.989831
v 2738.987647 16264.266206 9138.765295
v -2738.987101 16264.266206 -9138.765295
v 9138.763110 16264.266206 -2738.989831
v 0.000422 31870.775845 0.000198
v 0.000422 26675.444399 4883.177943
v 4883.176851 26675.444399 -0.000115
v 0.000422 26675.444399 -4883.177397
v -4883.175758 26675.444399 0.000209
v -185.931401 31870.775845 185.932100
v -4883.175758 26675.444399 2441.588698
v -2441.587879 26675.444399 4883.177943
v 0.000422 31870.775845 185.932100
v -185.931401 31870.775845 0.000204
v 185.932237 31870.775845 185.932100
v 2441.588425 26675.444399 4883.177943
v 4883.176851 26675.444399 2441.588698
v 185.932237 31870.775845 0.000191
v 185.932237 31870.775845 -185.931657
v 4883.176851 26675.444399 -2441.588971
v 2441.588425 26675.444399 -4883.177943
v 0.000422 31870.775845 -185.931657
v -185.931401 31870.775845 -185.931657
v -2441.587879 26675.444399 -4883.177397
v -4883.175758 26675.444399 -2441.588698
v 0.000422 26101.018160 -0.000091
v 3199.889370 21466.508909 -5938.877563
v 5938.876471 21466.508909 3199.887459
v -3199.888005 21466.508909 5938.877563
v -5938.875378 21466.508909 -3199.887186
v 2388.980076 8075.058072 7239.977583
v -6935.710253 6858.865902 1988.446436
v 7623.718356 9043.706118 -2099.974967
v -1700.972793 7827.515040 -7351.505842
v -253.458549 29590.303698 41.084801
v -3812.242044 19109.076801 6861.854733
v -6819.663516 19001.240664 -3867.544385
v 3886.165290 19953.003812 -6873.839924
v 6893.585123 20060.837765 3855.559740
v -138.947903 29594.408724 449.617509
v 4968.983699 19849.856012 7289.483131
v -383.930226 19373.974438 8792.632266
v -400.020819 29574.237512 302.585019
v 7.614376 29610.474911 188.117333
v -661.093718 29554.064114 155.552495
v -7240.554887 18844.176980 4931.078838
v -8744.264394 18790.258911 -433.620687
v -514.531448 29570.130301 -105.947706
v -367.969212 29586.198672 -367.447822
v -4895.061546 19212.224601 -7301.468323
v 457.853061 19688.103991 -8804.615819
v -106.896270 29606.367700 -220.415332
v 154.176655 29626.538912 -73.382834
v 7314.476494 20217.901449 -4943.063484
v 8818.187639 20271.819518 421.636178
v 33.843842 26735.195582 -5.487287
v 2961.372372 19627.837222 -4725.740678
v -4318.341659 18535.415202 -2681.529839
v -2273.364952 18659.184260 4614.212419
v 5006.348943 19751.608465 2570.001581
v 1554.086881 0.000000 -2026.636399
v -638.912730 0.000000 -2527.174348
v -2397.561799 0.000000 -1124.698445
v -2397.562345 0.000000 1124.698309
v -638.913071 0.000000 2527.174348
v 1554.086745 0.000000 2026.636399
v 2530.063050 0.000000 0.000021
v 1112.043169 1029.299550 -1424.512292
v -297.727266 642.622626 -1304.429073
v -1768.273570 1008.715636 -640.067747
v -1665.550691 1029.299550 790.544668
v -429.405265 1029.299550 1776.337931
v 1112.042828 1029.299550 1424.512428
v 1798.051806 1029.299550 0.000014
v 504.850930 5818.324731 -947.047570
v -263.272384 5818.324731 -1180.949077
v -1245.059665 5838.908849 -676.048855
v -1085.089665 5818.324731 525.571660
v -263.272520 5818.324731 1180.948940
v 646.556061 5818.324731 763.203792
v 960.924837 5818.324731 0.000001
v 563.812348 16460.199836 -677.747175
v -169.569957 16460.199836 -845.136918
v -757.696947 16460.199836 -376.121404
v -757.697016 16460.199836 376.121268
v -169.570077 16460.199836 845.136918
v 448.851742 16460.199836 493.903362
v 890.198130 16460.199836 -0.000014
v 372.807473 23951.343208 -417.572490
v -79.042794 23951.343208 -520.704348
v -441.398615 23951.343208 -231.735304
v -441.398684 23951.343208 231.735184
v -79.042845 23951.343208 520.704348
v 372.807439 23951.343208 417.572490
v 573.899798 23951.343208 -0.000011
v 53.090952 29612.934868 -0.000010
vt 0.506593 1.000000
vt 0.994346 1.000000
vt 0.994346 0.000000
vt 0.506593 0.000000
vt 0.750470 0.500000
vt 0.750470 0.000000
vt 0.994346 0.500000
vt 0.750470 1.000000
vt 0.506593 0.500000
vt 0.706820 0.410508
vt 0.506593 0.250000
vt 0.628532 0.000000
vt 0.750470 0.410508
vt 0.706820 0.500000
vt 0.794120 0.410508
vt 0.872408 0.000000
vt 0.994346 0.250000
vt 0.794120 0.500000
vt 0.794120 0.589492
vt 0.994346 0.750000
vt 0.872408 1.000000
vt 0.750470 0.589492
vt 0.706820 0.589492
vt 0.628532 1.000000
vt 0.506593 0.750000
vt 0.750470 0.500000
vt 0.750470 1.000000
vt 0.994346 0.500000
vt 0.750470 0.000000
vt 0.506593 0.500000
vt 0.706820 0.500000
vt 0.506593 0.500000
vt 0.506593 0.250000
vt 0.706820 0.410508
vt 0.506593 0.500000
vt 0.506593 1.000000
vt 0.750470 1.000000
vt 0.750470 0.500000
vt 0.750470 0.410508
vt 0.750470 0.000000
vt 0.872408 0.000000
vt 0.794120 0.410508
vt 0.794120 0.500000
vt 0.994346 0.500000
vt 0.994346 0.750000
vt 0.794120 0.589492
vt 0.750470 0.589492
vt 0.750470 1.000000
vt 0.628532 1.000000
vt 0.706820 0.589492
vt 0.628532 0.000000
vt 0.750470 0.500000
vt 0.994346 0.250000
vt 0.872408 1.000000
vt 0.506593 0.750000
vt 0.994346 1.000000
vt 0.994346 0.500000
vt 0.994346 0.000000
vt 0.750470 0.000000
vt 0.506593 0.000000
vt 0.706820 0.500000
vt 0.506593 0.500000
vt 0.506593 0.250000
vt 0.706820 0.410508
vt 0.506593 0.500000
vt 0.506593 1.000000
vt 0.750470 1.000000
vt 0.750470 0.500000
vt 0.750470 0.410508
vt 0.750470 0.000000
vt 0.872408 0.000000
vt 0.794120 0.410508
vt 0.794120 0.500000
vt 0.994346 0.500000
vt 0.994346 0.750000
vt 0.794120 0.589492
vt 0.750470 0.589492
vt 0.750470 1.000000
vt 0.628532 1.000000
vt 0.706820 0.589492
vt 0.628532 0.000000
vt 0.750470 0.500000
vt 0.994346 0.250000
vt 0.872408 1.000000
vt 0.506593 0.750000
vt 0.994346 1.000000
vt 0.994346 0.500000
vt 0.994346 0.000000
vt 0.750470 0.000000
vt 0.506593 0.000000
vt 0.421525 0.014159
vt 0.489604 0.014159
vt 0.489604 0.040391
vt 0.421525 0.056175
vt 0.017151 0.014159
vt 0.082603 0.014159
vt 0.082603 0.056175
vt 0.017151 0.040391
vt 0.147004 0.014159
vt 0.147004 0.056175
vt 0.212456 0.014159
vt 0.212456 0.056175
vt 0.280535 0.014159
vt 0.280535 0.056175
vt 0.351030 0.014159
vt 0.351030 0.056175
vt 0.489604 0.251666
vt 0.421525 0.251666
vt 0.082603 0.251666
vt 0.017151 0.251666
vt 0.147004 0.251666
vt 0.212456 0.251666
vt 0.280535 0.251666
vt 0.351030 0.251666
vt 0.489604 0.686072
vt 0.421525 0.686072
vt 0.082603 0.686072
vt 0.017151 0.686072
vt 0.147004 0.686072
vt 0.212456 0.686072
vt 0.280535 0.686072
vt 0.351030 0.686072
vt 0.489604 0.991863
vt 0.421525 0.991863
vt 0.082603 0.991863
vt 0.017151 0.991863
vt 0.147004 0.991863
vt 0.212456 0.991863
vt 0.280535 0.991863
vt 0.351030 0.991863
vt 0.366380 0.618106
vt 0.187584 0.658915
vt 0.239869 0.452872
vt 0.044199 0.544570
vt 0.044199 0.361175
vt 0.187583 0.246830
vt 0.366380 0.287639
vt 0.445953 0.452872
vn -0.629124 0.506856 0.589322
vn -0.629125 0.506856 0.589321
vn -0.629125 0.506856 0.589321
vn -0.629126 0.506856 0.589320
vn -0.924459 0.380083 -0.030201
vn -0.930027 0.366234 -0.030383
vn -0.930027 0.366234 -0.030383
vn -0.935387 0.352303 -0.030558
vn 0.589319 0.506857 0.629126
vn 0.589319 0.506857 0.629126
vn 0.589319 0.506857 0.629126
vn 0.589320 0.506856 0.629125
vn 0.629127 0.506859 -0.589316
vn 0.629126 0.506858 -0.589318
vn 0.629126 0.506858 -0.589318
vn 0.629125 0.506856 -0.589320
vn -0.589318 0.506855 -0.629128
vn -0.589319 0.506856 -0.629126
vn -0.589319 0.506856 -0.629126
vn -0.589320 0.506856 -0.629125
vn -0.027777 0.525629 0.850260
vn -0.027777 0.525629 0.850260
vn -0.027777 0.525629 0.850260
vn 0.589319 0.506856 0.629126
vn 0.589320 0.506856 0.629126
vn 0.589320 0.506856 0.629126
vn 0.589320 0.506856 0.629126
vn -0.682689 0.052766 -0.728801
vn 0.032561 0.074519 -0.996688
vn 0.032561 0.074519 -0.996688
vn 0.728801 0.052766 -0.682689
vn 0.850260 0.525629 0.027777
vn 0.850260 0.525629 0.027777
vn 0.850260 0.525629 0.027777
vn 0.629126 0.506856 -0.589319
vn 0.629126 0.506856 -0.589320
vn 0.629126 0.506856 -0.589320
vn 0.629126 0.506856 -0.589320
vn -0.728801 0.052766 0.682689
vn -0.996688 0.074519 -0.032561
vn -0.996688 0.074519 -0.032561
vn -0.682688 0.052766 -0.728802
vn 0.027778 0.525629 -0.850260
vn 0.027778 0.525629 -0.850260
vn 0.027778 0.525629 -0.850260
vn -0.589320 0.506856 -0.629126
vn -0.589320 0.506856 -0.629126
vn -0.589320 0.506856 -0.629126
vn -0.589320 0.506856 -0.629125
vn 0.682688 0.052766 0.728802
vn -0.032562 0.074519 0.996688
vn -0.032562 0.074519 0.996688
vn -0.728802 0.052766 0.682689
vn -0.850260 0.525629 -0.027777
vn -0.850260 0.525629 -0.027777
vn -0.850260 0.525629 -0.027777
vn -0.629125 0.506856 0.589320
vn -0.629125 0.506856 0.589320
vn -0.629125 0.506856 0.589320
vn -0.629125 0.506856 0.589320
vn 0.728801 0.052766 -0.682689
vn 0.996688 0.074519 0.032561
vn 0.996688 0.074519 0.032561
vn 0.682688 0.052766 0.728802
vn 0.030202 0.380083 -0.924459
vn 0.030383 0.366234 -0.930027
vn 0.030383 0.366234 -0.930027
vn 0.030559 0.352303 -0.935387
vn 0.924459 0.380082 0.030201
vn 0.930027 0.366234 0.030383
vn 0.930027 0.366234 0.030383
vn 0.935387 0.352303 0.030558
vn -0.030202 0.380083 0.924459
vn -0.030383 0.366234 0.930027
vn -0.030383 0.366234 0.930027
vn -0.030559 0.352303 0.935387
vn -0.741770 0.670655 0.000000
vn -0.741770 0.670655 0.000000
vn -0.741770 0.670655 0.000000
vn -0.741770 0.670655 0.000000
vn -0.211603 0.675838 -0.706022
vn -0.205915 0.696826 -0.687046
vn -0.205915 0.696826 -0.687046
vn -0.200056 0.717234 -0.667498
vn 0.000000 0.670655 0.741769
vn 0.000000 0.670655 0.741769
vn 0.000000 0.670655 0.741769
vn 0.000000 0.670655 0.741770
vn 0.741770 0.670655 0.000000
vn 0.741770 0.670655 0.000000
vn 0.741770 0.670655 0.000000
vn 0.741770 0.670655 0.000000
vn 0.000000 0.670655 -0.741770
vn 0.000000 0.670655 -0.741770
vn 0.000000 0.670655 -0.741770
vn 0.000000 0.670655 -0.741769
vn -0.513595 0.687343 0.513595
vn -0.513595 0.687343 0.513595
vn -0.513595 0.687343 0.513595
vn 0.000000 0.670655 0.741770
vn 0.000000 0.670655 0.741770
vn 0.000000 0.670655 0.741770
vn 0.000000 0.670655 0.741770
vn 0.000000 1.000000 0.000000
vn 0.000000 1.000000 0.000000
vn 0.000000 1.000000 0.000000
vn 0.000000 1.000000 0.000000
vn 0.513595 0.687343 0.513595
vn 0.513595 0.687343 0.513595
vn 0.513595 0.687343 0.513595
vn 0.741770 0.670655 0.000000
vn 0.741770 0.670655 0.000000
vn 0.741770 0.670655 0.000000
vn 0.741770 0.670655 0.000000
vn 0.000000 1.000000 0.000000
vn 0.000000 1.000000 0.000000
vn 0.000000 1.000000 0.000000
vn 0.000000 1.000000 0.000000
vn 0.513595 0.687343 -0.513595
vn 0.513595 0.687343 -0.513595
vn 0.513595 0.687343 -0.513595
vn 0.000000 0.670655 -0.741769
vn -0.000000 0.670655 -0.741770
vn -0.000000 0.670655 -0.741770
vn -0.000000 0.670655 -0.741770
vn 0.000000 1.000000 0.000000
vn 0.000000 1.000000 0.000000
vn 0.000000 1.000000 0.000000
vn 0.000000 1.000000 0.000000
vn -0.513595 0.687343 -0.513595
vn -0.513595 0.687343 -0.513595
vn -0.513595 0.687343 -0.513595
vn -0.741770 0.670655 0.000000
vn -0.741770 0.670655 0.000000
vn -0.741770 0.670655 0.000000
vn -0.741770 0.670655 0.000000
vn 0.000000 1.000000 0.000000
vn 0.000000 1.000000 0.000000
vn 0.000000 1.000000 0.000000
vn 0.000000 1.000000 0.000000
vn 0.706022 0.675838 -0.211602
vn 0.687046 0.696826 -0.205915
vn 0.687046 0.696826 -0.205915
vn 0.667498 0.717234 -0.200056
vn 0.211603 0.675838 0.706022
vn 0.205915 0.696826 0.687046
vn 0.205915 0.696826 0.687046
vn 0.200057 0.717234 0.667497
vn -0.706022 0.675838 0.211602
vn -0.687046 0.696826 0.205915
vn -0.687046 0.696826 0.205915
vn -0.667498 0.717234 0.200056
vn 0.658922 0.631866 0.408128
vn 0.658922 0.631866 0.408127
vn 0.658922 0.631866 0.408127
vn 0.658922 0.631867 0.408126
vn 0.830371 0.502268 -0.241271
vn 0.871855 0.420253 -0.251508
vn 0.871855 0.420253 -0.251508
vn 0.905883 0.334643 -0.259594
vn -0.434539 0.575770 0.692578
vn -0.434539 0.575771 0.692578
vn -0.434539 0.575771 0.692578
vn -0.434538 0.575772 0.692577
vn -0.731348 0.569731 -0.374882
vn -0.731347 0.569730 -0.374886
vn -0.731347 0.569730 -0.374886
vn -0.731345 0.569730 -0.374891
vn 0.345733 0.625245 -0.699669
vn 0.345733 0.625246 -0.699669
vn 0.345733 0.625246 -0.699669
vn 0.345732 0.625246 -0.699669
vn 0.159970 0.621920 0.766567
vn 0.159970 0.621920 0.766567
vn 0.159970 0.621920 0.766567
vn -0.434535 0.575770 0.692581
vn -0.434536 0.575771 0.692579
vn -0.434536 0.575771 0.692579
vn -0.434538 0.575772 0.692577
vn -0.084712 0.996311 0.013719
vn -0.084712 0.996311 0.013733
vn -0.084712 0.996311 0.013733
vn -0.084712 0.996311 0.013747
vn -0.786597 0.578952 0.214662
vn -0.786597 0.578952 0.214662
vn -0.786597 0.578952 0.214662
vn -0.731345 0.569730 -0.374890
vn -0.731345 0.569730 -0.374890
vn -0.731345 0.569730 -0.374890
vn -0.731345 0.569730 -0.374890
vn -0.084719 0.996310 0.013726
vn -0.084719 0.996310 0.013733
vn -0.084719 0.996310 0.013733
vn -0.084718 0.996310 0.013740
vn -0.263652 0.612922 -0.744858
vn -0.263652 0.612922 -0.744858
vn -0.263652 0.612922 -0.744858
vn 0.345740 0.625247 -0.699664
vn 0.345736 0.625246 -0.699667
vn 0.345736 0.625246 -0.699667
vn 0.345732 0.625246 -0.699669
vn -0.084702 0.996312 0.013719
vn -0.084712 0.996311 0.013726
vn -0.084712 0.996311 0.013726
vn -0.084722 0.996310 0.013733
vn 0.722926 0.658476 -0.209252
vn 0.722926 0.658476 -0.209252
vn 0.722926 0.658476 -0.209252
vn 0.658925 0.631867 0.408121
vn 0.658923 0.631867 0.408124
vn 0.658923 0.631867 0.408124
vn 0.658922 0.631867 0.408126
vn -0.084709 0.996311 0.013754
vn -0.084709 0.996311 0.013733
vn -0.084709 0.996311 0.013733
vn -0.084709 0.996311 0.013712
vn -0.303358 0.437306 -0.846603
vn -0.302457 0.378797 -0.874661
vn -0.302457 0.378797 -0.874661
vn -0.300282 0.318693 -0.899036
vn -0.887512 0.392048 0.242116
vn -0.903631 0.349669 0.247353
vn -0.903631 0.349669 0.247353
vn -0.917866 0.306561 0.252075
vn 0.178280 0.449708 0.875202
vn 0.195063 0.386745 0.901320
vn 0.195063 0.386745 0.901320
vn 0.210884 0.321877 0.922997
vn -0.131187 0.824437 -0.550539
vn -0.194980 0.431281 -0.880897
vn 0.412218 0.683185 -0.602772
vn 0.395330 0.306894 -0.865754
vn -0.719962 0.609028 -0.332774
vn -0.727291 0.566604 -0.387309
vn -0.764528 0.596709 0.243793
vn -0.817749 0.385626 0.427293
vn -0.296707 0.601473 0.741751
vn -0.217473 0.381023 0.898625
vn 0.400581 0.584708 0.705444
vn 0.595502 0.379419 0.708109
vn 0.808046 0.574662 0.129712
vn 0.932280 0.355593 -0.066390
vn -0.090323 0.050910 -0.994610
vn 0.638372 0.091511 -0.764269
vn -0.840171 0.071949 -0.537528
vn -0.877576 0.084430 0.471944
vn -0.156865 0.092283 0.983299
vn 0.724667 0.084952 0.683842
vn 0.990341 0.072866 -0.117966
vn -0.116612 0.039835 -0.992378
vn 0.739267 0.027570 -0.672848
vn -0.934569 0.046302 -0.352755
vn -0.820170 0.039438 0.570759
vn 0.073207 0.034809 0.996709
vn 0.693887 0.024801 0.719657
vn 0.980152 0.026109 0.196519
vn 0.544519 0.062698 -0.836402
vn -0.314382 0.064628 -0.947094
vn -0.898676 0.071210 -0.432794
vn -0.936402 0.066029 0.344662
vn -0.314382 0.064628 0.947094
vn 0.595826 0.050883 0.801500
vn 0.997534 0.054467 0.044275
vn 0.001164 0.999999 -0.000001
s 1
g Prop_Redwood1 start01 base01
f 14/14/1 9/9/2 10/10/3
f 9/9/2 11/11/4 10/10/3
s 2
f 26/26/5 27/27/6 30/30/7
f 30/30/7 27/27/6 3/1/8
s 3
f 13/13/9 6/6/10 15/15/11
f 6/6/10 16/16/12 15/15/11
s 4
f 18/18/13 7/7/14 19/19/15
f 7/7/14 20/20/16 19/19/15
s 5
f 22/22/17 8/8/18 23/23/19
f 8/8/18 24/24/20 23/23/19
s off
f 11/11/21 12/12/22 10/10/23
s 7
f 13/13/24 10/10/25 6/6/26
f 12/12/27 6/6/26 10/10/25
s 8
f 13/13/28 5/5/29 10/10/30
f 5/5/29 14/14/31 10/10/30
s off
f 16/16/32 17/17/33 15/15/34
s 10
f 18/18/35 15/15/36 7/7/37
f 17/17/38 7/7/37 15/15/36
s 11
f 18/18/39 5/5/40 15/15/41
f 5/5/40 13/13/42 15/15/41
s off
f 20/20/43 21/21/44 19/19/45
s 13
f 22/22/46 19/19/47 8/8/48
f 21/21/49 8/8/48 19/19/47
s 14
f 22/22/50 5/5/51 19/19/52
f 5/5/51 18/18/53 19/19/52
s off
f 24/24/54 25/25/55 23/23/56
s 16
f 14/14/57 23/23/58 9/9/59
f 25/25/60 9/9/59 23/23/58
s 17
f 14/14/61 5/5/62 23/23/63
f 5/5/62 22/22/64 23/23/63
s 18
f 26/26/65 28/28/66 27/27/67
f 27/27/67 28/28/66 4/2/68
s 19
f 26/26/69 29/29/70 28/28/71
f 28/28/71 29/29/70 2/3/72
s 20
f 26/26/73 30/30/74 29/29/75
f 29/29/75 30/30/74 1/4/76
s 21
f 44/31/77 39/32/78 40/34/79
f 39/32/78 41/33/80 40/34/79
s 22
f 33/36/81 60/35/82 57/37/83
f 60/35/82 56/38/84 57/37/83
s 23
f 43/39/85 36/40/86 45/42/87
f 36/40/86 46/41/88 45/42/87
s 24
f 48/43/89 37/44/90 49/46/91
f 37/44/90 50/45/92 49/46/91
s 25
f 52/47/93 38/48/94 53/50/95
f 38/48/94 54/49/96 53/50/95
s off
f 41/33/97 42/51/98 40/34/99
s 27
f 43/39/100 40/34/101 36/40/102
f 42/51/103 36/40/102 40/34/101
s 28
f 43/39/104 35/52/105 40/34/106
f 35/52/105 44/31/107 40/34/106
s off
f 46/41/108 47/53/109 45/42/110
s 30
f 48/43/111 45/42/112 37/44/113
f 47/53/114 37/44/113 45/42/112
s 31
f 48/43/115 35/52/116 45/42/117
f 35/52/116 43/39/118 45/42/117
s off
f 50/45/119 51/54/120 49/46/121
s 33
f 52/47/122 49/46/123 38/48/124
f 51/54/125 38/48/124 49/46/123
s 34
f 52/47/126 35/52/127 49/46/128
f 35/52/127 48/43/129 49/46/128
s off
f 54/49/130 55/55/131 53/50/132
s 36
f 44/31/133 53/50/134 39/32/135
f 55/55/136 39/32/135 53/50/134
s 37
f 44/31/137 35/52/138 53/50/139
f 35/52/138 52/47/140 53/50/139
s 38
f 34/56/141 57/37/142 58/57/143
f 57/37/142 56/38/144 58/57/143
s 39
f 32/58/145 58/57/146 59/59/147
f 58/57/146 56/38/148 59/59/147
s 40
f 31/60/149 59/59/150 60/35/151
f 59/59/150 56/38/152 60/35/151
s 41
f 74/61/153 70/64/154 69/62/155
f 70/64/154 71/63/156 69/62/155
s 42
f 86/68/157 90/65/158 87/67/159
f 90/65/158 63/66/160 87/67/159
s 43
f 73/69/161 75/72/162 66/70/163
f 75/72/162 76/71/164 66/70/163
s 44
f 78/73/165 79/76/166 67/74/167
f 79/76/166 80/75/168 67/74/167
s 45
f 82/77/169 83/80/170 68/78/171
f 83/80/170 84/79/172 68/78/171
s off
f 71/63/173 70/64/174 72/81/175
s 47
f 73/69/176 66/70/177 70/64/178
f 72/81/179 70/64/178 66/70/177
s 48
f 73/69/180 70/64/181 65/82/182
f 70/64/181 74/61/183 65/82/182
s off
f 76/71/184 75/72/185 77/83/186
s 50
f 78/73/187 67/74/188 75/72/189
f 77/83/190 75/72/189 67/74/188
s 51
f 78/73/191 75/72/192 65/82/193
f 75/72/192 73/69/194 65/82/193
s off
f 80/75/195 79/76/196 81/84/197
s 53
f 82/77/198 68/78/199 79/76/200
f 81/84/201 79/76/200 68/78/199
s 54
f 82/77/202 79/76/203 65/82/204
f 79/76/203 78/73/205 65/82/204
s off
f 84/79/206 83/80/207 85/85/208
s 56
f 74/61/209 69/62/210 83/80/211
f 85/85/212 83/80/211 69/62/210
s 57
f 74/61/213 83/80/214 65/82/215
f 83/80/214 82/77/216 65/82/215
s 58
f 86/68/217 87/67/218 88/87/219
f 87/67/218 64/86/220 88/87/219
s 59
f 86/68/221 88/87/222 89/89/223
f 88/87/222 62/88/224 89/89/223
s 60
f 86/68/225 89/89/226 90/65/227
f 89/89/226 61/90/228 90/65/227
s 61
f 92/92/229 99/93/230 91/91/231
f 91/91/231 99/93/230 98/94/232
f 93/96/233 100/97/234 92/95/229
f 92/95/229 100/97/234 99/98/230
f 93/96/233 94/99/235 100/97/234
f 94/99/235 101/100/236 100/97/234
f 94/99/235 95/101/237 101/100/236
f 95/101/237 102/102/238 101/100/236
f 95/101/237 96/103/239 102/102/238
f 96/103/239 103/104/240 102/102/238
f 96/103/239 97/105/241 103/104/240
f 97/105/241 104/106/242 103/104/240
f 97/105/241 91/91/231 104/106/242
f 91/91/231 98/94/232 104/106/242
f 99/93/230 106/107/243 98/94/232
f 98/94/232 106/107/243 105/108/244
f 106/110/243 99/98/230 107/109/245
f 99/98/230 100/97/234 107/109/245
f 100/97/234 101/100/236 107/109/245
f 101/100/236 108/111/246 107/109/245
f 101/100/236 102/102/238 108/111/246
f 102/102/238 109/112/247 108/111/246
f 102/102/238 103/104/240 109/112/247
f 103/104/240 110/113/248 109/112/247
f 103/104/240 104/106/242 110/113/248
f 104/106/242 111/114/249 110/113/248
f 98/94/232 105/108/244 104/106/242
f 104/106/242 105/108/244 111/114/249
f 106/107/243 113/115/250 105/108/244
f 105/108/244 113/115/250 112/116/251
f 106/110/243 107/109/245 113/118/250
f 107/109/245 114/117/252 113/118/250
f 107/109/245 108/111/246 114/117/252
f 108/111/246 115/119/253 114/117/252
f 108/111/246 109/112/247 115/119/253
f 109/112/247 116/120/254 115/119/253
f 109/112/247 110/113/248 116/120/254
f 110/113/248 117/121/255 116/120/254
f 111/114/249 118/122/256 110/113/248
f 110/113/248 118/122/256 117/121/255
f 105/108/244 112/116/251 111/114/249
f 111/114/249 112/116/251 118/122/256
f 112/116/251 113/115/250 119/124/257
f 113/115/250 120/123/258 119/124/257
f 113/118/250 114/117/252 120/126/258
f 114/117/252 121/125/259 120/126/258
f 115/119/253 122/127/260 114/117/252
f 114/117/252 122/127/260 121/125/259
f 116/120/254 123/128/261 115/119/253
f 115/119/253 123/128/261 122/127/260
f 117/121/255 124/129/262 116/120/254
f 116/120/254 124/129/262 123/128/261
f 118/122/256 125/130/263 117/121/255
f 117/121/255 125/130/263 124/129/262
f 118/122/256 112/116/251 125/130/263
f 112/116/251 119/124/257 125/130/263
f 119/131/257 120/132/258 126/133/264
f 120/132/258 121/134/259 126/133/264
f 121/134/259 122/135/260 126/133/264
f 122/135/260 123/136/261 126/133/264
f 123/136/261 124/137/262 126/133/264
f 124/137/262 125/138/263 126/133/264
f 125/138/263 119/131/257 126/133/264
