# This file uses meters as units for non-parametric coordinates.

g default
v -66.395065 4.900236 -77.887177
v -66.395065 15.588415 38.333191
v -0.000011 15.588415 76.666435
v 66.395065 15.588415 38.333218
v 66.395065 4.900236 -77.887154
v 0.000000 4.900236 -116.220360
v -86.824883 11.674810 -116.536545
v -114.999634 22.201550 66.395050
v -0.000023 31.245396 132.790131
v 114.999611 22.201550 66.395065
v 86.824883 11.674810 -116.536514
v 0.000000 17.575512 -182.744598
v -100.256760 39.366798 -126.807907
v -132.790131 46.046806 76.666382
v 132.790131 46.046806 76.666435
v 100.256760 39.366798 -126.807861
v 0.000000 73.728874 -190.693649
v -114.999634 157.789047 66.395050
v -0.000023 157.789047 132.790131
v 114.999611 157.789047 66.395065
v -79.076508 248.512054 38.333195
v -0.000015 248.512054 76.666435
v 79.076492 248.512054 38.333218
v 0.000000 0.000000 -0.000000
v 0.000000 222.196533 -27.191019
v -103.722046 139.298721 -65.876541
v 103.722046 139.298721 -65.876518
v 49.752182 140.985809 -140.384018
v -49.752190 140.985809 -140.384064
v -65.190536 195.964569 -40.868984
v 64.507996 195.964569 -42.457722
v 36.262829 195.964569 -102.096222
v -35.921570 195.964569 -102.890633
v -107.733498 110.068161 -107.053299
v 107.733498 110.068161 -107.053268
v 0.000000 102.046867 -182.813019
v -86.687225 168.677139 -92.082306
v 86.687225 168.677139 -92.082260
v 0.000000 167.933060 -151.988647
v 0.000000 181.798615 -126.656296
v -44.912964 201.149811 -61.865063
v 44.912975 201.149811 -61.865051
v 0.000000 201.149811 -87.795570
v 125.746666 157.800537 -109.976685
v 0.000000 157.800537 -197.727036
v 0.000000 214.284485 -130.056656
v 85.395439 214.284485 -96.640656
v -85.395447 214.284485 -96.640686
v -125.746658 157.800537 -109.976707
v -76.011162 60.989876 128.929871
v 76.011101 60.989876 128.929901
v -0.000023 64.970230 137.603867
v -0.000023 139.035095 137.603867
v -68.930405 116.371780 133.266876
v 68.930359 116.371780 133.266876
v -90.697372 189.202591 52.364124
v -0.000015 189.202591 104.728271
v 90.697357 189.202591 52.364147
v -126.181587 161.105881 68.554474
v -113.113823 179.349915 56.836403
v -0.000008 170.710754 136.767181
v -0.000008 200.059891 126.570488
v 126.181564 161.105881 68.554520
v 113.113777 179.349915 56.836426
v -33.197544 220.616104 57.499813
v -33.197544 220.616104 57.499813
v 33.197525 220.616104 57.499817
v 33.197525 220.616104 57.499817
v 63.139511 218.598129 -7.444160
v -33.197533 232.114746 19.166595
v -0.000006 232.114746 38.333218
v 33.197533 232.114746 19.166609
v -63.139511 218.598129 -7.444183
v -78.546234 204.909348 45.348667
v -0.000015 204.909348 90.697350
v 78.546211 204.909348 45.348686
v 48.140350 72.063469 124.005638
v 43.655899 106.489761 126.752396
v -0.000023 120.843201 129.499207
v -43.655945 106.489761 126.752388
v -48.140408 72.063469 124.005646
v -0.000027 59.188828 87.201843
v 50.072388 79.445778 81.487793
v 45.407974 105.557983 84.344780
v -0.000027 120.487152 87.201843
v -45.408024 105.557983 84.344780
v -50.072437 79.445778 81.487793
v -95.505394 53.018246 77.011009
v 95.505341 53.018246 77.011032
v 93.540810 25.520802 -121.672188
v 0.000000 54.828167 -188.018066
v -93.540810 25.520802 -121.672218
v 0.000000 33.136253 -184.947372
v -76.283241 34.239555 -131.984833
v 0.000008 35.464954 -138.665894
v 0.000008 54.787781 -141.401230
v 76.283279 34.239571 -131.984833
vt 0.470405 0.852891
vt 0.470566 0.589256
vt 0.517076 0.525643
vt 0.410203 0.501924
vt 0.349786 0.589033
vt 0.516838 0.916588
vt 0.410149 0.685049
vt 0.138276 0.404917
vt 0.135701 0.894558
vt 0.012027 0.573756
vt 0.123689 0.032321
vt 0.138276 0.440516
vt 0.142094 0.800690
vt 0.138276 0.440516
vt 0.123689 0.032321
vt 0.135701 0.229920
vt 0.138276 0.404917
vt 0.142094 0.800690
vt 0.003161 0.423163
vt 0.003161 0.800760
vt 0.903299 0.500000
vt 0.804762 0.200302
vt 0.984838 0.000000
vt 0.530471 0.833816
vt 0.598589 0.684437
vt 0.598589 0.833816
vt 0.410242 0.444630
vt 0.667710 0.007812
vt 0.598589 0.833816
vt 0.674276 0.833816
vt 0.598589 0.833816
vt 0.530471 0.833816
vt 0.598589 0.833816
vt 0.598589 0.833816
vt 0.598589 0.983195
vt 0.530471 0.833816
vt 0.689754 0.217296
vt 0.598589 0.983195
vt 0.598589 0.684437
vt 0.530471 0.833816
vt 0.674275 0.833816
vt 0.153835 0.565803
vt 0.598589 0.983195
vt 0.598589 0.983195
vt 0.598589 0.833816
vt 0.530471 0.833816
vt 0.538640 0.003500
vt 0.674276 0.833816
vt 0.674275 0.833816
vt 0.598589 0.833816
vt 0.674276 0.833816
vt 0.598589 0.684437
vt 0.530471 0.833816
vt 0.598589 0.983195
vt 0.598589 0.684437
vt 0.089967 0.244051
vt 0.135701 0.894558
vt 0.009157 0.903258
vt 0.508189 0.004597
vt 0.508189 0.004598
vt 0.508189 0.375963
vt 0.283548 0.565803
vt 0.287849 0.007959
vt 0.287849 0.007959
vt 0.158229 0.007959
vt 0.153835 0.565803
vt 0.268587 0.565803
vt 0.275974 0.007959
vt 0.283548 0.565803
vt 0.153835 0.565803
vt 0.598589 0.684437
vt 0.674276 0.833816
vt 0.598589 0.983195
vt 0.674276 0.833816
vt 0.598589 0.983195
vt 0.598589 0.833816
vt 0.598589 0.833816
vt 0.598589 0.684437
vt 0.674275 0.833816
vt 0.598589 0.983194
vt 0.530471 0.833816
vt 0.530471 0.833816
vt 0.309958 0.400452
vt 0.309958 0.400452
vt 0.309958 0.400452
vt 0.309958 0.400452
vt 0.424009 0.400452
vt 0.424009 0.400452
vt 0.424009 0.400452
vt 0.424009 0.400452
vt 0.533487 0.194743
vt 0.669108 0.343305
vt 0.533488 0.194743
vt 0.538640 0.003500
vt 0.647235 0.237433
vt 0.642122 0.421325
vt 0.545149 0.533403
vt 0.630786 0.714851
vt 0.630786 0.714851
vt 0.668098 0.706268
vt 0.545149 0.533403
vt 0.630786 0.714851
vt 0.630786 0.714851
vt 0.642122 0.421325
vt 0.647235 0.237433
vt 0.665688 0.011432
vt 0.608647 0.425193
vt 0.598434 0.285512
vt 0.606402 0.037448
vt 0.665688 0.767640
vt 0.608647 0.425193
vt 0.665686 0.011432
vt 0.606403 0.037465
vt 0.598435 0.285561
vt 0.665686 0.767640
vt 0.674275 0.833816
vt 0.658983 0.006512
vt 0.658983 0.691258
vt 0.565497 0.645389
vt 0.565497 0.052381
vt 0.614924 0.348885
vt 0.614924 0.348885
vt 0.565497 0.645389
vt 0.565497 0.052382
vt 0.614924 0.348886
vt 0.614924 0.348886
vt 0.658983 0.691258
vt 0.658983 0.006512
vt 0.448182 0.199451
vt 0.618590 0.235711
vt 0.523577 0.415306
vt 0.568967 0.072184
vt 0.482086 0.019059
vt 0.448182 0.199452
vt 0.523577 0.415306
vt 0.618590 0.235710
vt 0.482086 0.019059
vt 0.568967 0.072184
vt 0.598589 0.684437
vt 0.598589 0.684437
vt 0.153835 0.007959
vt 0.153835 0.565803
vt 0.188008 0.067855
vt 0.257250 0.007959
vt 0.292267 0.565803
vt 0.243224 0.007959
vt 0.153835 0.007959
vt 0.188008 0.067855
vt 0.292267 0.565803
vt 0.257250 0.007959
vt 0.243224 0.007959
vt 0.158229 0.007959
vt 0.275974 0.007959
vt 0.268587 0.565803
vt 0.191496 0.495317
vt 0.181417 0.119484
vt 0.181417 0.119484
vt 0.191496 0.495317
vt 0.933475 0.802093
vt 0.689429 1.000000
vt 0.852544 0.960018
vt 0.903090 0.000000
vt 0.753511 0.011035
vt 0.689429 0.245719
vt 0.972620 0.294422
vt 0.689429 1.000000
vt 0.689429 0.245719
vt 0.972620 0.294422
vt 0.933475 0.802093
vt 0.753511 0.011035
vt 0.903090 0.000000
vt 0.852544 0.960018
vt 0.984838 0.500000
vt 0.984837 1.000000
vt 0.804762 0.799698
vt 0.996260 0.496739
vt 0.854584 0.217296
vt 0.856210 0.822402
vt 0.689755 0.963138
vt 0.996260 0.496739
vt 0.689754 0.217296
vt 0.854584 0.217296
vt 0.856210 0.822402
vt 0.689755 0.963138
vt 0.598589 0.983194
vt 0.530471 0.833816
vt 0.598589 0.684437
vt 0.508189 0.375963
vt 0.508189 0.004598
vt 0.455197 0.004597
vt 0.455197 0.314068
vt 0.508189 0.375961
vt 0.455197 0.314067
vt 0.455197 0.004596
vt 0.508189 0.375963
vt 0.455197 0.314068
vt 0.455197 0.004597
vt 0.508189 0.004598
vt 0.455197 0.004597
vt 0.455197 0.314068
vt 0.303314 0.525248
vt 0.410030 0.996382
vt 0.349786 0.852668
vt 0.303314 0.916193
vt 0.410069 0.939469
vt 0.021566 0.032260
vt 0.003161 0.425524
vt 0.012027 0.573756
vt 0.009157 0.903258
vt 0.135701 0.229920
vt 0.089967 0.244051
vt 0.003161 0.425524
vt 0.021566 0.032260
vt 0.003161 0.800760
vt 0.003161 0.423163
vt 0.219433 0.896674
vt 0.180716 0.869438
vt 0.169639 0.694621
vt 0.219433 0.594445
vt 0.270710 0.694621
vt 0.259633 0.869438
vt 0.309957 0.042686
vt 0.424007 0.042686
vt 0.309957 0.042686
vt 0.424007 0.042686
vt 0.309957 0.042686
vt 0.424007 0.042686
vt 0.309957 0.042686
vt 0.424007 0.042686
vt 0.073864 0.734157
vt 0.073864 0.734157
vt 0.101507 -0.228344
vt 0.084528 -0.424959
vt 0.041078 -0.618617
vt 0.041078 -0.132763
vt 0.084528 -0.424959
vt 0.101507 -0.228344
vt 0.041078 -0.132763
vt 0.041078 -0.618617
vt 0.328474 0.078299
vt 0.309610 0.249750
vt 0.404585 0.396898
vt 0.389899 0.097869
vt 0.309610 0.249750
vt 0.328474 0.078299
vt 0.389899 0.097869
vt 0.404585 0.396898
vt 0.070719 0.415220
vt 0.071719 0.430840
vt 0.045347 0.800736
vt 0.045347 0.800736
vt 0.071719 0.430840
vt 0.070719 0.415220
vt 0.105120 0.800709
vt 0.105120 0.800709
vt 0.105120 0.800709
vt 0.071719 0.430840
vt 0.045347 0.800736
vt 0.071719 0.430840
vt 0.105120 0.800709
vt 0.045347 0.800736
vn -0.119922 -0.992635 -0.017178
vn -0.141788 -0.980120 0.138783
vn -0.370371 -0.853655 0.366195
vn -0.487978 -0.821058 -0.296210
vn -0.000000 -0.978325 0.207073
vn -0.000000 -0.690908 0.722943
vn 0.141788 -0.980120 0.138783
vn 0.370371 -0.853655 0.366195
vn 0.119922 -0.992635 -0.017178
vn 0.487978 -0.821058 -0.296210
vn 0.000000 -0.994479 -0.104937
vn 0.000000 -0.808014 -0.589164
vn -0.857111 -0.413560 0.307131
vn -0.903271 -0.166173 -0.395586
vn -0.668067 -0.406655 -0.623151
vn 0.668067 -0.406655 -0.623151
vn 0.903271 -0.166173 -0.395586
vn 0.857111 -0.413560 0.307131
vn 0.000000 -0.332531 -0.943092
vn 0.000000 0.087018 -0.996207
vn 0.090907 -0.027686 0.995474
vn -0.683840 -0.131122 0.717753
vn -0.635213 -0.589550 0.498934
vn 0.000000 -0.697879 0.716216
vn -0.887270 0.062733 0.456964
vn 0.073634 0.644184 0.761318
vn -0.378190 0.905487 0.192524
vn -0.000000 0.306321 0.951928
vn 0.703627 0.664598 0.251433
vn 0.000000 0.935303 0.353847
vn 0.856641 -0.346678 -0.382074
vn 0.258482 0.411924 -0.873788
vn 0.824469 0.501707 -0.261805
vn -0.824469 0.501707 -0.261805
vn -0.820266 0.249900 0.514503
vn -0.274072 0.961611 0.013750
vn -0.000000 -0.996548 0.083021
vn 0.278366 0.949337 -0.145849
vn 0.000000 0.919416 -0.393287
vn 0.336262 0.925421 -0.174710
vn -0.201780 0.970539 0.131678
vn 0.582101 0.675401 0.452760
vn -0.341414 0.921285 -0.186199
vn -0.586136 0.682547 0.436548
vn 0.205356 0.970354 0.127445
vn -0.776704 -0.194048 0.599230
vn -0.905781 -0.417066 0.074947
vn 0.000000 0.610784 -0.791798
vn -0.745651 0.406988 -0.527604
vn 0.000000 0.976329 -0.216289
vn 0.905781 -0.417066 0.074947
vn 0.828749 0.075540 -0.554499
vn -0.542414 0.207676 -0.814038
vn 0.000000 0.268103 -0.963390
vn 0.542414 0.207676 -0.814038
vn -0.608108 0.550831 -0.571656
vn 0.000070 0.847957 -0.530065
vn -0.640759 0.649601 -0.409203
vn -0.004206 0.954933 0.296791
vn 0.378190 0.905487 0.192525
vn 0.608108 0.550830 -0.571656
vn -0.278366 0.949337 -0.145848
vn 0.887270 0.062733 0.456964
vn -0.419229 0.653289 -0.630444
vn -0.454628 0.577057 -0.678468
vn -0.365220 0.585462 -0.723774
vn 0.000430 0.964733 -0.263230
vn -0.149826 0.954048 -0.259507
vn -0.206243 0.923671 -0.322949
vn 0.000145 0.980779 -0.195124
vn 0.204153 0.924162 -0.322872
vn 0.150676 0.953513 -0.260978
vn 0.419445 0.656407 -0.627053
vn 0.365911 0.590640 -0.719204
vn 0.449570 0.582127 -0.677506
vn 0.820266 0.249900 0.514503
vn -0.148330 0.625836 -0.765720
vn 0.641279 0.652048 -0.404468
vn 0.136501 0.629565 -0.764863
vn -0.258482 0.411924 -0.873788
vn 0.745651 0.406988 -0.527604
vn 0.274073 0.961611 0.013750
vn 0.000000 -0.258413 -0.966035
vn 0.005072 -0.104102 -0.994554
vn 0.869080 -0.024764 -0.494051
vn -0.867376 -0.025109 -0.497019
vn -0.856641 -0.346678 -0.382074
vn -0.828749 0.075539 -0.554499
vn 0.001935 0.754452 -0.656352
vn 0.000000 0.877198 -0.480130
vn 0.159467 -0.373591 0.913783
vn 0.214476 -0.567597 0.794880
vn -0.000000 0.114039 0.993476
vn 0.236893 0.064251 0.969409
vn 0.776703 -0.194049 0.599230
vn -0.000000 0.030729 0.999528
vn -0.236894 0.064251 0.969409
vn -0.000000 -0.058524 0.998286
vn -0.214476 -0.567597 0.794880
vn -0.159468 -0.373591 0.913783
vn -0.799843 -0.248274 0.546452
vn -0.000000 -0.051638 0.998666
vn -0.000000 0.913317 0.407249
vn -0.553241 0.827681 0.094180
vn 0.799843 -0.248275 0.546453
vn 0.553241 0.827681 0.094179
vn -0.683549 0.711888 -0.161174
vn -0.543218 0.838834 0.035665
vn -0.000000 0.936311 0.351171
vn 0.542536 0.839311 0.034808
vn 0.681523 0.713778 -0.161391
vn -0.703628 0.664597 0.251433
vn -0.638124 0.731267 -0.240927
vn -0.626582 0.718259 -0.302488
vn -0.162319 0.958153 -0.235785
vn -0.734212 0.613530 0.290711
vn -0.073634 0.644184 0.761318
vn -0.224193 0.893841 0.388312
vn -0.224193 0.893841 0.388312
vn 0.000000 0.999884 0.015215
vn -0.000000 0.666202 0.745772
vn 0.635159 0.733440 -0.242154
vn 0.625244 0.718709 -0.304184
vn 0.736403 0.611592 0.289250
vn 0.159890 0.958705 -0.235202
vn 0.224193 0.893841 0.388312
vn 0.224193 0.893841 0.388312
vn 0.395471 0.611893 0.684975
vn 0.395471 0.611893 0.684975
vn -0.545574 -0.551262 0.631236
vn -0.783624 -0.162158 0.599698
vn -0.000000 -0.827832 0.560976
vn 0.545574 -0.551262 0.631236
vn 0.783624 -0.162158 0.599698
vn 0.635213 -0.589550 0.498934
vn 0.683840 -0.131122 0.717753
vn 0.892320 0.404520 -0.200321
vn -0.892320 0.404520 -0.200321
vn -0.090907 -0.027686 0.995474
vn -0.395471 0.611893 0.684975
vn -0.395471 0.611893 0.684975
vn 0.095707 0.939871 0.327846
vn 0.095707 0.939871 0.327846
vn 0.095707 0.939871 0.327846
vn 0.095707 0.939871 0.327846
vn -0.095707 0.939871 0.327846
vn -0.095707 0.939871 0.327846
vn -0.095707 0.939871 0.327846
vn -0.095707 0.939871 0.327846
vn 0.452819 -0.886288 -0.097207
vn 0.452819 -0.886288 -0.097207
vn 0.452819 -0.886288 -0.097207
vn 0.452819 -0.886288 -0.097207
vn -0.452819 -0.886288 -0.097207
vn -0.452819 -0.886288 -0.097207
vn -0.452819 -0.886288 -0.097207
vn -0.452819 -0.886288 -0.097207
vn 0.000000 -0.376612 -0.926371
vn -0.084167 -0.139665 -0.986615
vn -0.084167 -0.139665 -0.986615
vn -0.084167 -0.139665 -0.986615
vn 0.084167 -0.139665 -0.986615
vn 0.084167 -0.139665 -0.986615
vn 0.084167 -0.139665 -0.986615
vn -0.143631 0.963259 -0.226942
vn -0.143631 0.963259 -0.226942
vn -0.143631 0.963259 -0.226942
vn -0.143631 0.963259 -0.226942
vn 0.312594 -0.946703 0.077711
vn 0.312594 -0.946703 0.077711
vn 0.312594 -0.946703 0.077711
vn 0.312594 -0.946703 0.077711
vn 0.143631 0.963259 -0.226942
vn 0.143631 0.963259 -0.226942
vn 0.143631 0.963259 -0.226942
vn 0.143631 0.963259 -0.226942
vn -0.312594 -0.946703 0.077711
vn -0.312594 -0.946703 0.077711
vn -0.312594 -0.946703 0.077711
vn -0.312594 -0.946703 0.077711
s 1
g pSphere1
f 1/1/1 2/2/2 8/3/3 7/6/4
f 2/2/2 3/4/5 9/27/6 8/3/3
f 3/4/5 4/5/7 10/201/8 9/27/6
f 4/5/7 5/203/9 11/204/10 10/201/8
f 5/203/9 6/205/11 12/202/12 11/204/10
f 6/205/11 1/1/1 7/6/4 12/202/12
f 7/8/4 8/15/3 14/206/13 13/207/14 92/253/15
f 10/11/8 11/17/10 90/248/16 16/212/17 15/213/18
f 90/249/16 91/250/19 17/214/20 16/215/17
f 91/251/19 92/252/15 13/19/14 17/20/20
f 82/216/21 83/217/22 84/218/23 85/219/24
s 2
f 74/24/25 65/71/26 21/76/27
s 3
f 75/25/28 67/72/29 22/73/30
s 4
f 35/30/31 28/39/32 44/50/33
s 5
f 49/29/34 26/32/35 37/38/36
s 1
f 2/2/2 1/1/1 24/7/37
f 3/4/5 2/2/2 24/7/37
f 4/5/7 3/4/5 24/7/37
f 5/203/9 4/5/7 24/7/37
f 6/205/11 5/203/9 24/7/37
f 1/1/1 6/205/11 24/7/37
s 2
f 21/76/27 65/71/26 70/79/38
s 3
f 22/73/30 67/72/29 71/77/39
s 6
f 47/34/40 42/43/41 31/48/42
s 7
f 48/33/43 30/46/44 41/54/45
s 1
f 13/166/14 14/167/13 18/168/46 26/169/47
s 8
f 45/31/48 29/40/49 39/44/50
s 1
f 27/159/51 16/160/17 35/161/52
f 17/37/20 29/176/53 36/177/54
f 28/180/55 17/181/20 36/182/54
s 2
f 73/80/56 74/24/25 21/76/27
f 70/79/38 73/80/56 21/76/27
s 9
f 46/35/57 33/36/58 43/45/59
s 10
f 23/26/60 69/74/61 72/75/62
f 76/78/63 69/74/61 23/26/60
s 11
f 29/134/64 37/135/65 33/136/66
s 1
f 43/28/67 33/47/68 41/91/69 25/92/70
f 42/93/71 32/94/72 43/28/67 25/92/70
s 11
f 28/129/73 32/130/74 38/131/75
s 4
f 35/30/31 44/50/33 27/185/76
s 6
f 47/34/40 32/53/77 42/43/41
s 9
f 46/35/57 43/45/59 32/49/78
s 7
f 48/33/43 41/54/45 33/116/79
s 5
f 49/29/34 37/38/36 29/41/80
s 8
f 45/31/48 39/44/50 28/51/81
s 4
f 44/50/33 28/39/32 38/186/82
f 27/185/76 44/50/33 38/186/82
s 8
f 36/140/83 45/31/48 28/51/81
f 36/140/83 29/40/49 45/31/48
s 9
f 40/52/84 46/35/57 32/49/78
f 40/52/84 33/36/58 46/35/57
s 6
f 38/187/85 47/34/40 31/48/42
f 38/187/85 32/53/77 47/34/40
s 7
f 37/139/86 48/33/43 33/116/79
f 37/139/86 30/46/44 48/33/43
s 5
f 34/55/87 49/29/34 29/41/80
f 34/55/87 26/32/35 49/29/34
s 1
f 35/183/52 17/181/20 28/180/55
f 17/37/20 34/178/88 29/176/53
s 11
f 40/132/89 28/129/73 39/133/90
f 39/137/90 29/134/64 40/138/89
s 1
f 16/184/17 17/181/20 35/183/52
f 17/37/20 13/179/14 34/178/88
f 51/10/91 89/231/92 10/57/8 15/58/18
f 53/21/93 55/22/94 20/23/95 19/173/96
f 18/174/46 54/175/97 53/21/93 19/173/96
f 8/9/3 9/16/6 52/56/98 88/230/99
f 14/167/13 50/170/100 54/171/97 18/168/46
f 55/162/94 51/163/91 15/164/18 20/165/95
f 8/9/3 88/230/99 50/208/100 14/209/13
f 59/62/101 61/63/102 62/65/103 60/66/104
f 61/64/102 63/69/105 64/70/106 62/152/103
f 37/42/107 60/147/104 56/148/108
f 18/67/46 19/68/96 61/63/102 59/62/101
f 57/157/109 56/158/108 60/66/104 62/65/103
f 19/153/96 20/154/95 63/69/105 61/64/102
f 58/155/110 57/156/109 62/152/103 64/70/106
f 64/141/106 38/142/111 58/143/110
s 3
f 66/81/112 75/25/28 22/73/30
f 71/77/39 66/81/112 22/73/30
s 1
f 41/91/69 30/95/113 73/96/114 70/97/115
f 30/111/113 56/112/108 74/113/116 73/114/114
s 10
f 68/82/117 76/78/63 23/26/60
f 72/75/62 68/82/117 23/26/60
s 1
f 70/97/115 65/98/118 66/99/119 71/100/120 25/92/70
f 56/117/108 57/118/109 75/119/121 74/120/116
f 58/106/110 31/107/122 69/108/123 76/109/124
f 72/101/125 42/93/71 25/92/70
f 71/100/120 67/102/126 68/103/127 72/101/125 25/92/70
f 75/123/128 76/124/129 68/125/127 67/126/126
f 51/61/91 55/198/94 78/199/130 77/200/131
f 55/188/94 53/189/93 79/190/132 78/191/130
f 53/59/93 54/192/97 80/193/133 79/194/132
f 54/60/97 50/195/100 81/196/134 80/197/133
f 77/83/131 78/222/130 84/223/23 83/87/22
f 78/84/130 79/224/132 85/225/24 84/88/23
f 79/85/132 80/226/133 86/227/135 85/89/24
f 80/86/133 81/228/134 87/229/136 86/90/135
f 63/144/105 27/145/137 38/142/111 64/141/106
f 63/144/105 20/146/95 27/145/51
f 26/149/138 59/150/101 60/147/104 37/42/107
f 26/149/47 18/151/46 59/150/101
f 13/166/14 26/169/47 34/172/88
f 15/164/18 16/160/17 27/159/51 20/165/95
f 82/216/139 85/219/24 86/220/135 87/221/136
s 11
f 28/129/73 40/132/89 32/130/74
f 29/134/64 33/136/66 40/138/89
s 1
f 37/115/107 56/112/108 30/111/113
f 58/106/110 38/110/111 31/107/122
f 72/101/125 69/104/123 31/105/122 42/93/71
f 41/91/69 70/97/115 25/92/70
f 57/127/109 58/128/110 76/124/124 75/123/121
f 74/120/140 75/119/141 66/121/119 65/122/118
f 9/210/6 10/57/8 89/231/92 52/211/98
s off
f 83/232/142 82/233/143 52/234/144 89/235/145
f 82/236/146 87/237/147 88/238/148 52/239/149
f 81/240/150 50/241/151 88/242/152 87/243/153
f 51/244/154 77/245/155 83/246/156 89/247/157
s 1
f 11/12/10 12/18/12 93/254/158 90/249/16
f 12/13/12 7/14/4 92/252/15 93/255/158
s off
f 95/256/159 94/257/160 96/258/161
f 97/259/162 95/260/163 96/261/164
f 93/255/165 92/252/166 94/257/167 95/256/168
f 92/252/169 91/251/170 96/258/171 94/257/172
f 90/249/173 93/254/174 95/260/175 97/259/176
f 91/250/177 90/249/178 97/259/179 96/261/180
