# This file uses meters as units for non-parametric coordinates.

g default
v 68.575249 113.887512 -964.893327
v -179.532272 113.887512 -884.278337
v -179.532272 113.887512 -623.402666
v 68.575218 113.887512 -542.787645
v 221.914062 113.887512 -753.840486
v 42.381836 210.319565 -884.278322
v -110.957031 210.319565 -834.455507
v -110.957047 210.319565 -673.225481
v 42.381817 210.319565 -623.402650
v 137.150452 210.319565 -753.840486
v 0.000000 247.153366 -753.840486
v 37.048180 0.000006 -890.891908
v -124.065414 0.000006 -838.542902
v -86.062943 77.444496 -816.368883
v 32.873127 77.444489 -855.013536
v -124.065414 0.000006 -669.138078
v -86.062943 77.444489 -691.312105
v 37.048161 -0.000000 -616.789079
v 32.873116 77.444489 -652.667436
v 136.621826 -0.000000 -753.840487
v 106.379639 77.444489 -753.840487
v -86.062943 173.171112 -816.368887
v 32.873131 173.171112 -855.013536
v -86.062943 173.171112 -691.312101
v 32.873119 173.171112 -652.667436
v 106.379646 173.171112 -753.840482
vt 0.990195 0.190983
vt 0.990195 0.809017
vt 0.907889 0.690983
vt 0.907889 0.309017
vt 0.692408 1.000000
vt 0.723846 0.809017
vt 0.508365 0.500000
vt 0.610101 0.500000
vt 0.692408 -0.000000
vt 0.723846 0.190983
vt 0.774714 0.500000
vt 0.618270 0.375350
vt 0.672786 0.375350
vt 0.672786 0.485597
vt 0.618270 0.485597
vt 0.672786 0.375350
vt 0.727302 0.375350
vt 0.727302 0.485597
vt 0.672786 0.485597
vt 0.727302 0.375350
vt 0.781819 0.375350
vt 0.781819 0.485597
vt 0.727302 0.485597
vt 0.781819 0.375350
vt 0.836335 0.375350
vt 0.836335 0.485597
vt 0.781819 0.485597
vt 0.836335 0.375350
vt 0.890852 0.375350
vt 0.890852 0.485597
vt 0.836335 0.485597
vt 0.618270 0.485597
vt 0.672786 0.485597
vt 0.672786 0.602851
vt 0.618270 0.602851
vt 0.672786 0.485597
vt 0.727302 0.485597
vt 0.727302 0.602851
vt 0.672786 0.602851
vt 0.727302 0.485597
vt 0.781819 0.485597
vt 0.781819 0.602851
vt 0.727302 0.602851
vt 0.781819 0.485597
vt 0.836335 0.485597
vt 0.836335 0.602851
vt 0.781819 0.602851
vt 0.836335 0.485597
vt 0.890852 0.485597
vt 0.890852 0.602851
vt 0.836335 0.602851
vn 0.232099 0.660204 -0.714326
vn -0.607642 0.660204 -0.441478
vn -0.415245 0.858227 -0.301693
vn 0.158609 0.858227 -0.488149
vn -0.607642 0.660204 0.441478
vn -0.415245 0.858227 0.301693
vn 0.232099 0.660204 0.714326
vn 0.158609 0.858227 0.488149
vn 0.751086 0.660204 0.000000
vn 0.513271 0.858227 0.000000
vn -0.000000 1.000000 -0.000000
vn 0.292159 0.414941 -0.861665
vn -0.699723 0.491743 -0.518243
vn -0.778769 0.259722 -0.571019
vn 0.307478 0.215457 -0.926842
vn -0.699723 0.491743 0.518243
vn -0.778769 0.259722 0.571019
vn 0.292159 0.414941 0.861665
vn 0.307477 0.215457 0.926842
vn 0.931496 0.363751 0.000000
vn 0.982315 0.187237 0.000000
vn -0.809017 -0.000000 -0.587785
vn 0.309017 -0.000000 -0.951057
vn -0.809017 -0.000000 0.587785
vn 0.309017 -0.000000 0.951057
vn 1.000000 -0.000000 0.000000
s 1
g polySurface18
f 1/1/1 2/2/2 7/3/3 6/4/4
f 2/2/2 3/5/5 8/6/6 7/3/3
f 3/5/5 4/7/7 9/8/8 8/6/6
f 4/7/7 5/9/9 10/10/10 9/8/8
f 5/9/9 1/1/1 6/4/4 10/10/10
f 6/4/4 7/3/3 11/11/11
f 7/3/3 8/6/6 11/11/11
f 8/6/6 9/8/8 11/11/11
f 9/8/8 10/10/10 11/11/11
f 10/10/10 6/4/4 11/11/11
s 2
f 12/12/12 13/13/13 14/14/14 15/15/15
f 13/16/13 16/17/16 17/18/17 14/19/14
f 16/20/16 18/21/18 19/22/19 17/23/17
f 18/24/18 20/25/20 21/26/21 19/27/19
f 20/28/20 12/29/12 15/30/15 21/31/21
f 15/32/15 14/33/14 22/34/22 23/35/23
f 14/36/14 17/37/17 24/38/24 22/39/22
f 17/40/17 19/41/19 25/42/25 24/43/24
f 19/44/19 21/45/21 26/46/26 25/47/25
f 21/48/21 15/49/15 23/50/23 26/51/26
g default
v 68.575249 86.382780 -411.052841
v -179.532272 86.382780 -330.437851
v -179.532272 86.382780 -69.562180
v 68.575218 86.382780 11.052841
v 221.914062 86.382780 -200.000000
v 42.381836 347.240811 -330.437836
v -110.957031 347.240811 -280.615021
v -110.957047 347.240811 -119.384995
v 42.381817 347.240811 -69.562164
v 137.150452 347.240811 -200.000000
v 0.000000 446.879810 -200.000000
v 37.048180 0.000009 -337.051422
v -124.065414 0.000009 -284.702415
v -86.062943 114.386640 -262.528397
v 32.873127 114.386629 -301.173050
v -124.065414 0.000009 -115.297592
v -86.062943 114.386629 -137.471619
v 37.048161 -0.000000 -62.948593
v 32.873116 114.386629 -98.826950
v 136.621826 -0.000000 -200.000001
v 106.379639 114.386629 -200.000001
v -86.062943 255.776235 -262.528400
v 32.873131 255.776235 -301.173050
v -86.062943 255.776235 -137.471615
v 32.873119 255.776235 -98.826950
v 106.379646 255.776235 -199.999996
vt 0.990195 0.190983
vt 0.990195 0.809017
vt 0.907889 0.690983
vt 0.907889 0.309017
vt 0.692408 1.000000
vt 0.723846 0.809017
vt 0.508365 0.500000
vt 0.610101 0.500000
vt 0.692408 -0.000000
vt 0.723846 0.190983
vt 0.774714 0.500000
vt 0.586881 0.349152
vt 0.653952 0.349152
vt 0.653952 0.484791
vt 0.586881 0.484791
vt 0.653952 0.349152
vt 0.721025 0.349152
vt 0.721025 0.484791
vt 0.653952 0.484791
vt 0.721025 0.349152
vt 0.788097 0.349152
vt 0.788097 0.484791
vt 0.721025 0.484791
vt 0.788097 0.349152
vt 0.855169 0.349152
vt 0.855169 0.484791
vt 0.788097 0.484791
vt 0.855169 0.349152
vt 0.922241 0.349152
vt 0.922241 0.484791
vt 0.855169 0.484791
vt 0.586881 0.484791
vt 0.653952 0.484791
vt 0.653952 0.629048
vt 0.586881 0.629048
vt 0.653952 0.484791
vt 0.721025 0.484791
vt 0.721025 0.629048
vt 0.653952 0.629048
vt 0.721025 0.484791
vt 0.788097 0.484791
vt 0.788097 0.629048
vt 0.721025 0.629048
vt 0.788097 0.484791
vt 0.855169 0.484791
vt 0.855169 0.629048
vt 0.788097 0.629048
vt 0.855169 0.484791
vt 0.922241 0.484791
vt 0.922241 0.629048
vt 0.855169 0.629048
vn 0.293891 0.309036 -0.904503
vn -0.769416 0.309036 -0.559013
vn -0.662386 0.574144 -0.481252
vn 0.253009 0.574144 -0.778682
vn -0.769416 0.309036 0.559013
vn -0.662386 0.574144 0.481252
vn 0.293891 0.309036 0.904503
vn 0.253009 0.574144 0.778682
vn 0.951050 0.309036 0.000000
vn 0.818754 0.574144 0.000000
vn -0.000000 1.000000 0.000000
vn 0.306815 0.295025 -0.904889
vn -0.750600 0.357138 -0.555925
vn -0.793397 0.179146 -0.581745
vn 0.311417 0.147742 -0.938718
vn -0.750600 0.357138 0.555925
vn -0.793397 0.179146 0.581745
vn 0.306815 0.295025 0.904889
vn 0.311417 0.147742 0.938718
vn 0.966782 0.255603 0.000000
vn 0.991776 0.127988 0.000000
vn -0.809017 -0.000000 -0.587785
vn 0.309017 -0.000000 -0.951057
vn -0.809017 -0.000000 0.587785
vn 0.309017 -0.000000 0.951057
vn 1.000000 -0.000000 0.000000
s 1
g polySurface19
f 27/52/27 28/53/28 33/54/29 32/55/30
f 28/53/28 29/56/31 34/57/32 33/54/29
f 29/56/31 30/58/33 35/59/34 34/57/32
f 30/58/33 31/60/35 36/61/36 35/59/34
f 31/60/35 27/52/27 32/55/30 36/61/36
f 32/55/30 33/54/29 37/62/37
f 33/54/29 34/57/32 37/62/37
f 34/57/32 35/59/34 37/62/37
f 35/59/34 36/61/36 37/62/37
f 36/61/36 32/55/30 37/62/37
s 2
f 38/63/38 39/64/39 40/65/40 41/66/41
f 39/67/39 42/68/42 43/69/43 40/70/40
f 42/71/42 44/72/44 45/73/45 43/74/43
f 44/75/44 46/76/46 47/77/47 45/78/45
f 46/79/46 38/80/38 41/81/41 47/82/47
f 41/83/41 40/84/40 48/85/48 49/86/49
f 40/87/40 43/88/43 50/89/50 48/90/48
f 43/91/43 45/92/45 51/93/51 50/94/50
f 45/95/45 47/96/47 52/97/52 51/98/51
f 47/99/47 41/100/41 49/101/49 52/102/52
g default
v 142.554011 127.435025 75.278600
v -330.161511 127.435025 237.507665
v -330.161511 127.435025 762.492275
v 142.553954 127.435025 924.721400
v 434.708099 127.435025 500.000000
v 92.648091 328.915721 237.507705
v -199.506130 328.915721 337.770836
v -199.506167 328.915721 662.229135
v 92.648053 328.915721 762.492295
v 273.209308 328.915721 500.000000
v 11.898621 405.874539 500.000000
v 91.389773 0.000009 142.918526
v -306.042298 0.000009 279.311569
v -212.298495 114.386640 337.085003
v 81.090829 114.386629 236.398053
v -306.042298 0.000009 720.688411
v -212.298495 114.386629 662.914957
v 91.389726 -0.000000 857.081434
v 81.090801 114.386629 763.601947
v 337.016225 -0.000000 499.999998
v 262.415350 114.386629 499.999998
v -212.298495 255.776235 337.084993
v 81.090839 255.776235 236.398053
v -212.298495 255.776235 662.914967
v 81.090810 255.776235 763.601947
v 262.415369 255.776235 500.000012
vt 0.990195 0.190983
vt 0.990195 0.809017
vt 0.907889 0.690983
vt 0.907889 0.309017
vt 0.692408 1.000000
vt 0.723846 0.809017
vt 0.508365 0.500000
vt 0.610101 0.500000
vt 0.692408 -0.000000
vt 0.723846 0.190983
vt 0.774714 0.500000
vt 0.613986 0.704122
vt 0.671172 0.704122
vt 0.671172 0.819771
vt 0.613986 0.819771
vt 0.671172 0.704122
vt 0.728360 0.704122
vt 0.728360 0.819771
vt 0.671172 0.819771
vt 0.728360 0.704122
vt 0.785547 0.704122
vt 0.785547 0.819771
vt 0.728360 0.819771
vt 0.785547 0.704122
vt 0.842735 0.704122
vt 0.842735 0.819771
vt 0.785547 0.819771
vt 0.842735 0.704122
vt 0.899922 0.704122
vt 0.899922 0.819771
vt 0.842735 0.819771
vt 0.613986 0.819771
vt 0.671172 0.819771
vt 0.671172 0.942768
vt 0.613986 0.942768
vt 0.671172 0.819771
vt 0.728360 0.819771
vt 0.728360 0.942768
vt 0.671172 0.942768
vt 0.728360 0.819771
vt 0.785547 0.819771
vt 0.785547 0.942768
vt 0.728360 0.942768
vt 0.785547 0.819771
vt 0.842735 0.819771
vt 0.842735 0.942768
vt 0.785547 0.942768
vt 0.842735 0.819771
vt 0.899922 0.819771
vt 0.899922 0.942768
vt 0.842735 0.942768
vn 0.248306 0.644083 -0.723534
vn -0.638249 0.632366 -0.439034
vn -0.406729 0.869653 -0.279778
vn 0.156507 0.876089 -0.456041
vn -0.638249 0.632366 0.439034
vn -0.406729 0.869653 0.279778
vn 0.248306 0.644083 0.723534
vn 0.156507 0.876089 0.456041
vn 0.780275 0.625437 0.000000
vn 0.500486 0.865745 0.000000
vn -0.000000 1.000000 0.000000
vn 0.263309 0.624567 -0.735245
vn -0.590355 0.692900 -0.413969
vn -0.746985 0.416062 -0.518562
vn 0.308396 0.360912 -0.880133
vn -0.590355 0.692900 0.413969
vn -0.746985 0.416062 0.518562
vn 0.263309 0.624567 0.735245
vn 0.308396 0.360912 0.880133
vn 0.837608 0.546273 0.000000
vn 0.952883 0.303338 0.000000
vn -0.823899 -0.000000 -0.566737
vn 0.324602 -0.000000 -0.945851
vn -0.823899 -0.000000 0.566737
vn 0.324602 -0.000000 0.945851
vn 1.000000 -0.000000 0.000000
s 1
g polySurface20
f 53/103/53 54/104/54 59/105/55 58/106/56
f 54/104/54 55/107/57 60/108/58 59/105/55
f 55/107/57 56/109/59 61/110/60 60/108/58
f 56/109/59 57/111/61 62/112/62 61/110/60
f 57/111/61 53/103/53 58/106/56 62/112/62
f 58/106/56 59/105/55 63/113/63
f 59/105/55 60/108/58 63/113/63
f 60/108/58 61/110/60 63/113/63
f 61/110/60 62/112/62 63/113/63
f 62/112/62 58/106/56 63/113/63
s 2
f 64/114/64 65/115/65 66/116/66 67/117/67
f 65/118/65 68/119/68 69/120/69 66/121/66
f 68/122/68 70/123/70 71/124/71 69/125/69
f 70/126/70 72/127/72 73/128/73 71/129/71
f 72/130/72 64/131/64 67/132/67 73/133/73
f 67/134/67 66/135/66 74/136/74 75/137/75
f 66/138/66 69/139/69 76/140/76 74/141/74
f 69/142/69 71/143/71 77/144/77 76/145/76
f 71/146/71 73/147/73 78/148/78 77/149/77
f 73/150/73 67/151/67 75/152/75 78/153/78
