# This file uses meters as units for non-parametric coordinates.

g default
v -41.849589 18.181001 48.211755
v -27.827598 18.181001 48.211755
v -41.849589 32.238409 48.211755
v -27.827598 32.238409 48.211755
v -41.849589 32.238409 -48.211755
v -27.827598 32.238409 -48.211755
v -41.849589 18.181001 -48.211755
v -27.827598 18.181001 -48.211755
v -8.651462 18.614706 -66.636154
v -8.651462 18.614706 66.636154
v -8.651462 31.804697 -66.636154
v -8.651462 31.804697 66.636154
v 41.849597 11.876772 -0.268646
v 41.849597 38.542638 -0.268646
v 29.773266 38.542638 37.689680
v 29.773266 11.876772 37.689680
v 29.773266 11.876772 -39.480641
v 29.773266 38.542638 -39.480641
v -27.827598 50.419412 0.000000
v -27.827598 0.000000 0.000000
vt 0.301217 0.050140
vt 0.123085 0.228650
vt 0.256807 0.414986
vt 0.256791 0.050140
vt 0.137555 0.228650
vt 0.309106 0.414986
vt 0.301215 0.414986
vt 0.309077 0.050139
vt 0.309106 0.414986
vt 0.309106 0.414986
vt 0.309077 0.050140
vt 0.309077 0.050140
vt 0.309106 0.414986
vt 0.309077 0.050139
vt 0.309106 0.414987
vt 0.309106 0.414986
vt 0.309106 0.414986
vt 0.309077 0.050140
vt 0.309077 0.050140
vt 0.309106 0.414987
vt 0.123085 0.228650
vt 0.309077 0.050139
vt 0.123085 0.228650
vt 0.309077 0.050139
vt 0.309077 0.050139
vt 0.309077 0.050139
vt 0.123085 0.228650
vt 0.123085 0.228650
vt 0.123085 0.228650
vt 0.123085 0.228650
vt 0.309106 0.414987
vt 0.309077 0.050139
vt 0.309106 0.414986
vt 0.309077 0.050140
vt 0.123085 0.228650
vt 0.123085 0.228650
vt 0.123085 0.228650
vt 0.123085 0.228650
vt 0.309077 0.050139
vt 0.309106 0.414987
vt 0.309077 0.050140
vt 0.309106 0.414986
vt 0.682904 0.986937
vt 0.682903 0.813620
vt 0.750133 0.813619
vt 0.769929 0.986937
vt 0.769929 0.986937
vt 0.750133 0.813619
vt 0.682903 0.813620
vt 0.682904 0.986937
vt 0.682827 0.559748
vt 0.674909 0.244235
vt 0.776293 0.244235
vt 0.742640 0.559748
vt 0.742640 0.559748
vt 0.682827 0.559748
vt 0.772334 0.016090
vt 0.674909 0.016090
vt 0.674909 0.244235
vt 0.776293 0.244235
vt 0.932442 0.270034
vt 0.932441 0.751382
vt 1.011003 0.751382
vt 1.011003 0.270034
vt 0.123085 0.228650
vt 0.123085 0.228650
vt 0.137555 0.228650
vt 0.301215 0.414986
vt 0.256791 0.050140
vt 0.123085 0.228650
vt 0.123085 0.228650
vt 0.123085 0.228650
vt 0.256807 0.414986
vt 0.301217 0.050140
vt 0.309106 0.414986
vt 0.309106 0.414986
vn -0.657267 -0.567229 0.496237
vn -0.312702 -0.573868 0.756897
vn -0.312702 0.573868 0.756897
vn -0.657267 0.567229 0.496237
vn -0.123575 0.992335 -0.000115
vn -0.657267 0.567229 -0.496237
vn -0.312702 0.573868 -0.756897
vn -0.312702 -0.573868 -0.756897
vn -0.657267 -0.567229 -0.496237
vn -0.123575 -0.992335 -0.000115
vn -0.128960 -0.653726 0.745662
vn 0.587720 -0.654432 0.475714
vn 0.587720 0.654432 0.475714
vn -0.128960 0.653726 0.745662
vn 0.579654 -0.657467 -0.481392
vn 0.751720 -0.659473 0.003572
vn -0.140201 0.649022 -0.747739
vn -0.140201 -0.649022 -0.747739
vn 0.751720 0.659473 0.003572
vn 0.579654 0.657467 -0.481392
s 1
g pCube1
f 1/43/1 2/44/2 4/45/3 3/46/4
f 3/69/4 19/67/5 5/3/6
f 5/47/6 6/48/7 8/49/8 7/50/9
f 1/74/1 20/70/10 2/6/2
f 10/51/11 16/52/12 15/53/13 12/54/14
f 7/61/9 1/62/1 3/63/4 5/64/6
f 20/71/10 17/8/15 13/75/16
f 8/49/8 6/48/7 11/55/17 9/56/18
f 19/38/5 4/26/3 12/42/14
f 4/45/3 2/44/2 10/51/11 12/54/14
f 14/57/19 13/58/16 17/59/15 18/60/20
f 15/53/13 16/52/12 13/58/16 14/57/19
f 18/60/20 17/59/15 9/56/18 11/55/17
f 6/24/7 19/23/5 11/13/17
f 15/40/13 19/37/5 12/11/14
f 11/41/17 19/35/5 18/15/20
f 14/76/19 19/65/5 15/14/13
f 18/39/20 19/36/5 14/16/19
f 2/22/2 20/21/10 10/17/11
f 20/30/10 8/25/8 9/33/18
f 20/27/10 16/20/12 10/34/11
f 20/29/10 9/19/18 17/31/15
f 20/28/10 13/9/16 16/32/12
f 7/7/9 8/18/8 20/72/10
f 7/73/9 20/5/10 1/4/1
f 3/1/4 4/10/3 19/66/5
f 5/68/6 19/2/5 6/12/7
g default
v 91.309280 32.505486 72.099998
v 115.340347 28.789330 72.099998
v 90.803635 38.349918 72.099998
v 110.469543 50.779289 72.099998
v 90.803635 38.349918 -72.099998
v 110.469543 50.779289 -72.099998
v 91.309280 32.505486 -72.099998
v 115.340347 28.789330 -72.099998
v 140.626846 25.304613 -99.653435
v 140.626846 25.304613 99.653435
v 131.381195 63.475975 -99.653435
v 131.381195 63.475975 99.653435
v 208.167099 14.860225 -0.401756
v 186.653000 98.409203 -0.401756
v 173.435822 90.055626 56.364388
v 192.016174 17.357792 56.364388
v 192.016174 17.357792 -59.042747
v 173.435822 90.055626 -59.042747
v 98.804146 77.422417 0.000000
v 118.178818 0.000000 0.000000
v 114.426346 40.087681 -72.099998
v 134.344986 57.717052 -99.653435
v 176.958511 82.687508 -59.042747
v 191.717148 84.672577 -0.401756
v 177.198547 81.795555 56.364388
v 134.304535 57.921448 99.653435
v 114.512848 40.500248 72.099998
v 140.639313 31.813614 99.653435
v 191.392761 26.719122 56.364388
v 205.957962 29.166142 -0.401756
v 191.463791 24.834024 -59.042747
v 140.556030 31.813692 -99.653435
v 114.469597 40.293964 0.000000
vt 0.301217 0.290642
vt 0.123085 0.355062
vt 0.038645 0.370999
vt 0.038668 0.006153
vt 0.195999 0.184664
vt 0.309106 0.422307
vt 0.301215 0.422307
vt 0.309077 0.050139
vt 0.309106 0.414986
vt 0.309106 0.422307
vt 0.309077 0.050140
vt 0.309077 0.290642
vt 0.309106 0.414986
vt 0.309077 0.050139
vt 0.309106 0.414987
vt 0.309106 0.414986
vt 0.309106 0.414986
vt 0.309077 0.290642
vt 0.309077 0.050140
vt 0.309106 0.414987
vt 0.123085 0.228650
vt 0.309077 0.160779
vt 0.123085 0.228650
vt 0.309077 0.160779
vt 0.309077 0.160779
vt 0.309077 0.160779
vt 0.123085 0.228650
vt 0.123085 0.228650
vt 0.123085 0.228650
vt 0.123085 0.228650
vt 0.309106 0.414987
vt 0.309077 0.050139
vt 0.309106 0.414986
vt 0.309077 0.050140
vt 0.123085 0.228650
vt 0.123085 0.228650
vt 0.123085 0.228650
vt 0.123085 0.228650
vt 0.309077 0.050139
vt 0.309106 0.414987
vt 0.309077 0.050140
vt 0.309106 0.414986
vt 0.682904 0.986937
vt 0.682903 0.813620
vt 0.777847 0.813619
vt 0.777847 0.986937
vt 0.777847 0.986937
vt 0.777847 0.813619
vt 0.682903 0.813620
vt 0.682904 0.986937
vt 0.685832 0.605278
vt 0.685832 0.554570
vt 0.774917 0.396911
vt 0.774918 0.654259
vt 0.774918 0.654259
vt 0.685832 0.605278
vt 0.774917 0.165705
vt 0.685832 0.326425
vt 0.685832 0.554570
vt 0.774917 0.396911
vt 0.060960 0.063239
vt 0.060960 0.414873
vt 0.076237 0.414873
vt 0.076237 0.063238
vt 0.123085 0.228650
vt 0.123085 0.355062
vt 0.195999 0.184664
vt 0.301215 0.422307
vt 0.038668 0.006153
vt 0.123085 0.355062
vt 0.123085 0.228650
vt 0.123085 0.355062
vt 0.038645 0.370999
vt 0.301217 0.290642
vt 0.309106 0.414986
vt 0.309106 0.414986
vt 0.730375 0.813619
vt 0.744885 0.654259
vt 0.743736 0.396911
vt 0.744885 0.165705
vt 0.743949 0.396911
vt 0.744885 0.654259
vt 0.733307 0.813619
vt 0.717063 0.605278
vt 0.718523 0.554570
vt 0.715241 0.326425
vt 0.714000 0.554570
vt 0.716096 0.605278
vt 0.338052 0.652146
vt 0.339677 0.803962
vt 0.338052 0.652146
vt 0.338052 0.652146
vt 0.339677 0.803962
vt 0.338052 0.652146
vt 0.339677 0.803962
vt 0.339676 0.803962
vt 0.338052 0.652147
vt 0.339677 0.803961
vt 0.338052 0.652146
vt 0.339677 0.803962
vt 0.339676 0.803962
vt 0.338052 0.652146
vt 0.197144 0.715416
vt 0.197144 0.715416
vt 0.338052 0.652146
vt 0.197144 0.715416
vt 0.197144 0.715416
vt 0.197144 0.715416
vt 0.197144 0.715416
vt 0.197144 0.715416
vt 0.339677 0.803961
vt 0.339677 0.803962
vt 0.338052 0.652147
vt 0.338052 0.652146
vt 0.338052 0.652146
vt 0.197144 0.715416
vt 0.197144 0.715416
vt 0.197144 0.715416
vt 0.197144 0.715416
vt 0.197144 0.715416
vt 0.339677 0.803962
vt 0.339677 0.803962
vt 0.339676 0.803962
vt 0.338052 0.652146
vn -0.698128 0.254034 0.669390
vn -0.373269 -0.164236 0.913070
vn -0.601507 0.320675 0.731681
vn -0.573647 0.819102 0.000050
vn -0.698128 0.254034 -0.669390
vn 0.000000 0.000000 -1.000000
vn -0.552826 -0.476099 -0.683895
vn -0.552826 -0.476099 0.683895
vn -0.190117 -0.981761 0.000088
vn -0.411417 -0.550865 0.726144
vn 0.619886 -0.626931 -0.471910
vn 0.792027 -0.610477 0.003432
vn -0.435022 0.531979 0.726467
vn -0.601763 0.323478 -0.730235
vn -0.443776 0.525422 -0.725944
vn 0.308676 0.841710 0.442994
vn 0.297905 0.842629 -0.448586
vn 0.447373 0.894339 0.003874
vn -0.180970 -0.662094 0.727242
vn -0.411078 -0.552617 -0.725003
vn -0.192030 -0.657800 -0.728302
vn 0.627142 -0.625541 0.464102
vn -0.375855 -0.158119 -0.913089
vn -0.080897 -0.005078 -0.996709
vn 0.772382 0.340420 -0.536228
vn 0.927159 0.374642 0.004403
vn 0.780139 0.338764 0.525949
vn -0.061364 -0.008597 0.998078
vn -0.400898 -0.017933 0.915947
vn -0.059769 -0.005479 0.998197
vn 0.841952 0.073196 0.534564
vn 0.992486 0.122307 0.003454
vn 0.834861 0.078799 -0.544792
vn -0.075790 -0.008777 -0.997085
vn -0.401267 -0.022192 -0.915692
vn 0.495495 -0.863347 -0.095480
vn 0.495495 -0.863347 -0.095480
vn 0.495495 -0.863347 -0.095480
vn 0.318257 0.948000 -0.002903
vn 0.318257 0.948000 -0.002903
vn 0.318257 0.948000 -0.002903
vn 0.659345 -0.751838 0.001755
vn 0.659345 -0.751838 0.001755
vn 0.659345 -0.751838 0.001755
vn 0.664113 -0.747631 0.001741
vn 0.664113 -0.747631 0.001741
vn 0.664113 -0.747631 0.001741
vn 0.521514 -0.851953 0.046898
vn 0.521514 -0.851953 0.046898
vn 0.521514 -0.851953 0.046898
vn 0.534033 -0.844462 -0.041133
vn 0.534033 -0.844462 -0.041133
vn 0.534033 -0.844462 -0.041133
vn 0.496740 -0.863896 0.083263
vn 0.496740 -0.863896 0.083263
vn 0.496740 -0.863896 0.083263
vn 0.299087 0.954221 -0.002909
vn 0.299087 0.954221 -0.002909
vn 0.299087 0.954221 -0.002909
vn 0.120732 0.989949 0.073652
vn 0.120732 0.989949 0.073652
vn 0.120732 0.989949 0.073652
vn 0.167056 0.985132 -0.040102
vn 0.167056 0.985132 -0.040102
vn 0.167056 0.985132 -0.040102
vn 0.139761 0.989047 0.047464
vn 0.139761 0.989047 0.047464
vn 0.139761 0.989047 0.047464
vn 0.119661 0.987507 -0.102529
vn 0.119661 0.987507 -0.102529
vn 0.119661 0.987507 -0.102529
vn 0.000000 0.000000 1.000000
s 1
g pCube2
f 23/122/21 47/159/22 24/121/23
f 23/145/21 39/143/24 25/79/25
f 25/123/25 41/153/26 27/126/27
f 21/150/28 40/146/29 22/82/30
f 27/137/27 21/138/28 23/139/21 25/140/25
f 40/147/29 37/84/31 33/151/32
f 39/114/24 24/102/23 32/118/33
f 26/100/34 39/99/24 31/89/35
f 35/116/36 39/113/24 32/87/33
f 31/117/35 39/111/24 38/91/37
f 34/152/38 39/141/24 35/90/36
f 38/115/37 39/112/24 34/92/38
f 22/98/30 40/97/29 30/93/39
f 40/106/29 28/101/40 29/109/41
f 40/103/29 36/96/42 30/110/39
f 40/105/29 29/95/41 37/107/31
f 40/104/29 33/85/32 36/108/42
f 27/83/27 28/94/40 40/148/29
f 27/149/27 40/81/29 21/80/28
f 23/77/21 24/86/23 39/142/24
f 25/144/25 39/78/24 26/88/34
f 41/153/43 26/124/34 31/131/35 42/154/44
f 38/136/37 43/155/45 42/154/44 31/131/35
f 34/133/38 44/156/46 43/155/45 38/136/37
f 35/129/36 45/157/47 44/156/46 34/133/38
f 46/158/48 45/157/47 35/129/36 32/130/33
f 24/121/23 47/159/22 46/158/48 32/130/33
f 47/159/49 22/120/30 30/127/39 48/160/50
f 30/127/39 36/128/42 49/161/51 48/160/50
f 50/162/52 49/161/51 36/128/42 33/134/32
f 51/163/53 50/162/52 33/134/32 37/135/31
f 52/164/54 51/163/53 37/135/31 29/132/41
f 28/125/40 41/153/55 52/164/54 29/132/41
s off
f 44/191/56 53/194/57 43/169/58
f 48/190/59 53/186/60 47/172/61
f 46/165/62 47/166/63 53/179/64
f 42/199/65 53/196/66 41/167/67
f 46/200/68 53/192/69 45/171/70
f 43/197/71 53/195/72 42/168/73
f 45/198/74 53/193/75 44/170/76
f 53/180/77 52/177/78 41/178/79
f 53/184/80 49/174/81 50/181/82
f 53/182/83 51/176/84 52/189/85
f 48/173/86 49/187/87 53/185/88
f 53/183/89 50/175/90 51/188/91
s 1
f 21/119/28 22/120/30 47/159/49
f 21/119/28 47/159/92 23/122/21
f 25/123/25 26/124/34 41/153/43
f 27/126/27 41/153/55 28/125/40
g default
v -111.912134 21.815791 58.155821
v -124.821853 21.884370 37.683243
v -109.127610 33.167072 36.375603
v -134.234395 27.102660 18.203052
v -112.047754 41.744100 15.856889
v -130.560674 21.884370 -13.580765
v -112.047754 44.356563 -13.580765
v -123.331766 21.884370 -37.148048
v -112.047754 35.206761 -37.148048
v -116.930507 22.425742 -64.348681
v -104.532056 9.242519 -39.075311
v -94.492236 21.884370 -37.148048
v -96.979206 1.022706 -14.618291
v -82.435185 21.884370 -16.439333
v -97.169856 1.006191 7.239683
v -82.435185 21.884370 8.975695
v -111.067426 8.671870 37.546657
v -92.570344 20.602216 34.999195
v -121.440565 30.800753 37.839959
v -130.648052 35.723693 11.755394
v -130.648052 36.077134 -14.953963
v -123.065899 30.323147 -39.176705
v -96.001690 12.773512 36.986590
v -100.758499 30.064351 -39.176705
v -93.176206 35.818328 -17.253288
v -93.176206 35.818328 13.496081
v -102.383731 30.627108 37.839959
v -116.567029 13.308425 -39.759724
v -124.149350 7.554436 -14.953963
v -125.883450 10.997670 36.986590
v -129.867947 0.000001 -2.606067
v -125.231152 10.148746 -41.312442
v -145.958211 14.147488 -17.171167
v -133.578708 18.474256 -39.688636
v -139.142466 13.886055 -41.247583
v -154.750496 9.607542 -5.957167
v -145.958211 30.055320 -15.662111
v -133.745177 31.509645 -39.688636
v -139.142466 31.065171 -41.247583
v -154.750496 29.217039 -12.926194
vt 0.696744 0.417284
vt 0.668549 0.576167
vt 0.727288 0.577604
vt 0.668354 0.838368
vt 0.200784 0.342344
vt 0.250233 0.332983
vt 0.291771 0.402827
vt 0.199267 0.400603
vt 0.274712 0.783191
vt 0.262530 0.755334
vt 0.268041 0.750176
vt 0.248347 0.726028
vt 0.261528 0.721363
vt 0.255663 0.753062
vt 0.239584 0.725890
vt 0.264217 0.682034
vt 0.500758 0.658951
vt 0.418352 0.826197
vt 0.298033 0.800764
vt 0.358515 0.620311
vt 0.250417 0.350226
vt 0.289128 0.477051
vt 0.217408 0.497430
vt 0.215821 0.368025
vt 0.219486 0.265207
vt 0.159078 0.469907
vt 0.340551 1.023288
vt 0.500758 0.484126
vt 0.695677 1.024999
vt 0.726847 0.837225
vt 0.195111 0.097355
vt 0.180591 0.130081
vt 0.098826 0.149279
vt 0.100181 0.106872
vt 0.165354 0.099644
vt 0.180591 0.130081
vt 0.098826 0.149279
vt 0.100181 0.106872
vt 0.165354 0.099644
vt 0.180591 0.130081
vt 0.098826 0.149279
vt 0.100181 0.106872
vt 0.235175 0.270037
vt 0.144292 0.297083
vt 0.132222 0.259572
vt 0.219618 0.239136
vt 0.235175 0.270037
vt 0.144292 0.297083
vt 0.132222 0.259572
vt 0.219618 0.239136
vt 0.235175 0.270037
vt 0.144292 0.297083
vt 0.132222 0.259572
vt 0.219618 0.239136
vt 0.179087 0.337018
vt 0.244826 0.312740
vt 0.261175 0.350573
vt 0.167603 0.362405
vt 0.202678 0.183214
vt 0.112951 0.205820
vt 0.202678 0.183214
vt 0.112951 0.205820
vt 0.112951 0.205820
vt 0.202678 0.183214
vt 0.179087 0.337018
vt 0.244826 0.312740
vt 0.215302 0.537116
vt 0.205100 0.373231
vt 0.179087 0.337018
vt 0.244826 0.312740
vt 0.516940 0.068640
vt 0.515818 0.180053
vt 0.431517 0.125251
vt 0.516939 0.068639
vt 0.515818 0.180050
vt 0.516939 0.068640
vt 0.515815 0.180052
vt 0.516938 0.068640
vt 0.151886 0.450229
vt 0.832362 0.528988
vt 0.697794 0.624332
vt 0.699317 0.540097
vt 0.699317 0.540097
vt 0.697793 0.624332
vt 0.697793 0.624332
vt 0.699317 0.540097
vt 0.697794 0.624333
vt 0.699317 0.540098
vt 0.832362 0.528988
vt 0.832362 0.528988
vt 0.832362 0.528988
vt 0.832362 0.528988
vt 0.832362 0.528988
vt 0.832362 0.528988
vt 0.832362 0.528988
vt 0.697794 0.624333
vt 0.697793 0.624332
vt 0.697793 0.624332
vt 0.697794 0.624332
vt 0.699317 0.540097
vt 0.699317 0.540098
vt 0.699317 0.540097
vt 0.699317 0.540097
vt 0.239732 0.336138
vt 0.201445 0.486035
vt 0.298658 0.455423
vt 0.288403 0.483875
vn 0.019023 0.178064 0.983835
vn -0.495379 0.735484 0.462237
vn -0.827048 0.251893 0.502534
vn -0.633450 0.743162 0.215525
vn -0.690228 0.706026 0.158471
vn -0.735874 0.650496 -0.188001
vn -0.961580 -0.201024 -0.186958
vn -0.717320 0.592025 -0.367367
vn -0.920749 -0.285377 -0.266046
vn -0.021695 0.393380 -0.919120
vn -0.041390 -0.910301 0.411872
vn 0.477518 -0.744615 0.466396
vn 0.822964 -0.023063 -0.567625
vn 0.526008 0.713872 -0.462280
vn 0.965370 0.007840 -0.260767
vn 0.569262 0.800608 -0.186996
vn 0.982744 0.025189 0.183247
vn 0.560213 0.806216 0.190201
vn 0.856375 0.113176 0.503798
vn 0.488119 0.753459 0.440499
vn -0.555081 0.809690 0.190491
vn 0.330180 -0.817867 -0.471249
vn 0.369531 -0.909324 -0.191252
vn -0.112812 -0.993614 0.002261
vn -0.138491 -0.912231 -0.385558
vn 0.415181 -0.898734 0.141077
vn -0.604201 -0.560311 0.566562
vn 0.033317 0.913394 0.405711
vn 0.008111 0.979978 0.198939
vn -0.004791 0.987429 -0.157989
vn -0.010543 0.920298 -0.391076
vn -0.530804 0.807890 -0.256048
vn -0.826567 -0.537525 0.166893
vn 0.475579 0.874157 0.098356
vn -0.539159 0.838040 0.083653
vn 0.494433 0.851135 0.176366
vn -0.483689 0.750267 -0.450715
vn 0.617539 0.624232 0.478520
vn 0.727036 0.686590 0.003610
vn -0.578769 -0.603049 -0.548961
s 1
g pCube3
f 54/293/93 72/299/94 55/282/95
f 55/231/95 72/232/94 73/233/96 57/234/97
f 57/235/97 73/236/96 74/237/98 59/238/99
f 59/239/99 74/240/98 75/241/100 61/242/101
f 61/271/101 75/272/100 63/273/102
f 70/302/103 76/298/104 54/290/93
f 65/274/105 63/273/102 77/275/106
f 67/243/107 65/244/105 77/245/106 78/246/108
f 69/247/109 67/248/107 78/249/108 79/250/110
f 71/251/111 69/252/109 79/253/110 80/254/112
f 63/209/102 81/210/113 61/211/101
f 64/255/114 66/256/115 84/257/116 85/268/117
f 84/208/116 66/304/115 68/205/118
f 70/283/103 54/291/93 83/297/119
f 72/281/94 54/294/93 56/300/120
f 73/233/96 72/232/94 56/261/120 58/262/121
f 74/237/98 73/236/96 58/264/121 60/263/122
f 75/241/100 74/240/98 60/259/122 62/260/123
f 63/273/102 75/272/100 62/276/123
f 64/277/114 63/273/102 65/274/105
f 66/256/115 64/255/114 65/244/105 67/243/107
f 68/270/118 66/269/115 67/248/107 69/247/109
f 76/266/104 68/265/118 69/252/109 71/251/111
f 54/295/93 80/287/112 56/286/120
f 77/275/106 63/273/102 62/276/123
f 78/246/108 77/245/106 62/260/123 60/259/122
f 79/250/110 78/249/108 60/263/122 58/264/121
f 80/254/112 79/253/110 58/262/121 56/261/120
f 85/278/117 63/273/102 64/277/114
f 81/210/113 82/212/124 59/213/99 61/211/101
f 83/306/119 55/307/95 57/305/97 89/279/125
f 83/285/119 54/292/93 55/303/95
f 54/289/93 76/284/104 71/288/111
f 80/296/112 54/280/93 71/301/111
f 57/201/97 90/202/126 93/203/127
f 91/204/128 63/229/102 92/230/129
f 82/212/124 81/210/113 87/214/130 86/215/131
f 85/221/117 84/222/116 89/223/125 88/224/132
f 81/210/113 63/209/102 87/214/130
f 63/225/102 85/221/117 88/224/132
f 86/217/131 87/218/130 91/219/128 90/220/126
f 88/224/132 89/223/125 93/226/127 92/258/129
f 57/228/97 86/217/131 90/220/126
f 89/223/125 57/267/97 93/226/127
f 87/218/130 63/227/102 91/219/128
f 63/225/102 88/224/132 92/258/129
f 90/202/126 91/204/128 92/230/129 93/203/127
f 83/306/119 89/279/125 84/208/116 70/207/103
f 82/212/124 86/215/131 57/216/97
f 82/212/124 57/216/97 59/213/99
f 70/207/103 84/208/116 68/205/118 76/206/104
