# This file uses centimeters as units for non-parametric coordinates.

g default
v 1.113199 2.300049 -0.574436
v 1.113199 2.300049 0.574436
v 0.228576 3.033090 0.574436
v 0.228576 3.033090 -0.574436
v 0.228576 3.033090 0.000000
v 1.113199 2.300049 0.000000
v 0.670887 2.666569 0.574436
v 0.562076 2.535258 0.000000
v 0.670887 2.666569 -0.574436
v -1.500000 0.000000 0.000000
v 1.500000 3.000000 0.000000
v 1.500000 1.500000 0.000000
v -1.500000 1.500000 0.000000
v 0.000000 3.000000 0.000000
v 0.000000 1.500000 0.000000
v 0.000000 0.000000 0.000000
vt 0.518873 0.033979
vt 0.991222 0.033979
vt 0.991222 0.506329
vt 0.518873 0.506329
vt 0.518873 0.270154
vt 0.991222 0.270154
vt 0.755047 0.506329
vt 0.755047 0.270154
vt 0.755047 0.033979
vt 0.500000 0.500000
vt 1.000000 0.500000
vt 1.000000 1.000000
vt 0.500000 1.000000
vt 0.000000 0.500000
vt 0.000000 0.000000
vt 0.500000 0.000000
vn -0.377536 -0.884612 0.273730
vn -0.377536 -0.884612 0.273730
vn -0.377536 -0.884612 0.273730
vn -0.377536 -0.884612 -0.273730
vn -0.377536 -0.884612 -0.273730
vn -0.377536 -0.884612 -0.273730
vn -0.799075 -0.535305 0.273729
vn -0.799075 -0.535305 0.273729
vn -0.799075 -0.535305 0.273729
vn -0.799075 -0.535305 -0.273729
vn -0.799075 -0.535305 -0.273729
vn -0.799075 -0.535305 -0.273729
vn -0.638053 -0.769993 0.000000
vn -0.638053 -0.769993 0.000000
vn -0.638053 -0.769993 0.000000
vn -0.638053 -0.769993 0.000000
vn -0.638053 -0.769993 0.000000
vn -0.638053 -0.769993 0.000000
vn -0.638053 -0.769993 0.000000
vn -0.638053 -0.769993 0.000000
vn -0.638053 -0.769993 0.000000
vn -0.638053 -0.769993 0.000000
vn -0.638053 -0.769993 0.000000
vn -0.638053 -0.769993 0.000000
vn 0.000000 0.000000 1.000000
vn 0.000000 0.000000 1.000000
vn 0.000000 0.000000 1.000000
vn 0.000000 0.000000 1.000000
vn 0.000000 0.000000 1.000000
vn 0.000000 0.000000 1.000000
vn 0.000000 0.000000 1.000000
vn 0.000000 0.000000 1.000000
vn 0.000000 0.000000 1.000000
vn 0.000000 0.000000 1.000000
vn 0.000000 0.000000 1.000000
s off
g polySurface3
f 8/8/1 6/6/2 7/7/3
f 9/9/4 6/6/5 8/8/6
f 5/5/7 8/8/8 7/7/9
f 5/5/10 9/9/11 8/8/12
f 9/9/13 1/2/14 6/6/15
f 7/7/16 6/6/17 2/3/18
f 5/5/19 7/7/20 3/4/21
f 4/1/22 9/9/23 5/5/24
f 15/10/25 12/11/26 11/12/27 14/13/28
f 13/14/29 15/10/30 14/13/31
f 10/15/32 16/16/33 15/10/34 13/14/35
