# This file uses centimeters as units for non-parametric coordinates.

g default
v 5.031717 74.551025 9.666108
v 5.580942 65.943939 -24.352394
v -28.985744 65.950348 10.360937
v -29.418039 68.519279 -24.637003
v -6.083883 88.331299 9.040927
v 24.056904 79.724205 -6.741771
v 7.572975 82.299545 -37.617180
v -22.958735 79.730614 -20.504129
v -9.666108 68.801544 5.031717
v 24.352394 60.194454 5.580942
v -10.360937 60.200863 -28.985744
v 24.637003 62.769794 -29.418039
v -9.040915 82.581818 -6.083887
v 6.741749 73.974724 24.056908
v 37.617172 76.550064 7.573002
v 20.504152 73.981133 -22.958727
v 3.119190 89.183121 5.992076
v 3.459657 83.847542 -15.096186
v -17.968424 83.851509 6.422803
v -18.236408 85.444000 -15.272616
v -3.771433 91.204491 5.604517
v 14.913006 85.868904 -4.179265
v 4.694547 87.465370 -23.319103
v -14.232241 85.872879 -12.710624
v -19.625559 40.295567 -7.949614
v 22.447163 23.571239 43.044125
v 29.798353 23.583691 -51.860512
v 74.557076 28.575348 -0.655833
v -2.401362 30.558033 -21.037867
v -27.072752 13.833706 40.295605
v 36.223640 18.837816 65.169296
v 59.796009 13.846156 1.375861
v -7.949633 46.045055 19.625526
v 43.044098 29.320726 -22.447189
v -51.860558 29.333176 -29.798395
v -0.655907 34.324837 -74.557121
v -21.037867 36.307522 2.401362
v 40.295605 19.583191 27.072752
v 65.169296 24.587301 -36.223640
v 1.375861 19.595642 -59.796009
v 19.625542 45.683094 7.949618
v -22.447166 28.958763 -43.044098
v -29.798346 28.971214 51.860527
v -74.557083 33.962875 0.655903
v 2.401345 59.463364 21.037849
v 27.072737 42.739033 -40.295620
v -36.223652 47.743145 -65.169289
v -59.796009 42.751484 -1.375844
v 7.949618 36.178459 -19.625542
v -43.044098 19.454128 22.447166
v 51.860527 19.466579 29.798346
v 0.655903 24.458239 74.557083
v 21.037857 49.958725 -2.401363
v -40.295597 33.234402 -27.072746
v -65.169312 38.238510 36.223595
v -1.375838 33.246849 59.795975
v -5.493827 51.804356 13.562831
v 29.746944 40.246494 -15.512800
v -35.839806 40.255104 -20.593063
v -0.453278 43.704739 -51.524960
v -14.538858 65.584625 1.659529
v 27.847498 54.026764 18.709442
v 45.037266 57.485008 -25.033447
v 0.950801 54.035366 -41.323856
v -13.562831 46.054867 -5.493827
v 15.512800 34.497013 29.746944
v 20.593063 34.505615 -35.839806
v 51.524960 37.955254 -0.453278
v -1.659532 59.835136 -14.538860
v -18.709473 48.277279 27.847500
v 25.033476 51.735519 45.037251
v 41.323887 48.285885 0.950832
v 13.562831 63.201294 5.493827
v -15.512800 51.643433 -29.746944
v -20.593063 51.652039 35.839806
v -51.524960 55.101677 0.453278
v 1.659539 76.981560 14.538866
v 18.709454 65.423706 -27.847504
v -25.033443 68.881943 -45.037266
v -41.323887 65.432304 -0.950841
v 4.091229 79.194862 -10.100183
v -22.152424 70.587769 11.552317
v 26.689751 70.594177 15.335565
v 0.337558 73.163109 38.370415
v 10.827027 92.975128 -1.235843
v -20.737913 84.368034 -13.932850
v -33.539040 86.943375 18.642323
v -0.708057 84.374443 30.773708
v 8.164646 54.898094 -12.143765
v -32.300621 43.340233 9.066289
v 30.840940 43.348843 27.520941
v -10.148568 46.798477 50.517651
v 14.569485 68.678360 1.364711
v -23.406586 57.120502 -24.034561
v -49.221516 60.578747 15.240325
v -9.425621 57.129105 40.245766
v -10.639453 78.503983 2.356668
v 22.076147 69.896896 11.697424
v -2.500576 69.903305 -30.680113
v 31.415237 72.472237 -22.033731
v -7.156832 92.284256 -8.217764
v 0.281380 83.677170 24.982124
v 34.372452 86.252510 17.056881
v 25.750511 83.683578 -16.865152
v -2.356668 72.754501 -10.639453
v -11.697424 64.147408 22.076147
v 30.680113 64.153816 -2.500576
v 22.033731 66.722748 31.415237
v 8.217770 86.534767 -7.156826
v -24.982105 77.927681 0.281390
v -17.056919 80.503014 34.372429
v 16.865141 77.934082 25.750511
v 2.356668 89.900925 10.639453
v 11.697424 81.293831 -22.076147
v -30.680113 81.300240 2.500576
v -22.033731 83.869171 -31.415237
v -8.217781 97.840019 7.156817
v 24.982132 89.232933 -0.281375
v 17.056852 91.808273 -34.372456
v -16.865154 89.239342 -25.750513
v -1.460912 87.386589 -6.595457
v -7.251298 82.051003 13.685127
v 19.018776 82.054977 -1.550121
v 13.658836 83.647469 19.474487
v 5.094244 101.166855 -4.436557
v -15.486556 95.831268 0.174436
v -10.573666 97.427742 21.307682
v 10.454806 95.835243 15.962893
v 6.595457 95.028374 -1.460912
v -13.685127 89.692795 -7.251298
v 1.550121 89.696762 19.018776
v -19.474487 91.289253 13.658836
v 4.436546 103.615265 5.094239
v -0.174429 98.279686 -15.486557
v -21.307669 99.876152 -10.573678
v -15.962893 98.283661 10.454806
vt 0.000000 0.000000
vt 1.000000 0.000000
vt 1.000000 1.000000
vt 0.000000 1.000000
vt 0.000000 0.000000
vt 1.000000 0.000000
vt 1.000000 1.000000
vt 0.000000 1.000000
vt 0.000000 0.000000
vt 1.000000 0.000000
vt 1.000000 1.000000
vt 0.000000 1.000000
vt 0.000000 0.000000
vt 1.000000 1.000000
vt 1.000000 0.000000
vt 0.000000 1.000000
vt 0.000000 0.000000
vt 1.000000 0.000000
vt 1.000000 1.000000
vt 0.000000 1.000000
vt 0.000000 0.000000
vt 1.000000 1.000000
vt 1.000000 0.000000
vt 0.000000 1.000000
vt 0.000000 0.000000
vt 1.000000 0.000000
vt 1.000000 1.000000
vt 0.000000 1.000000
vt 0.000000 0.000000
vt 1.000000 1.000000
vt 1.000000 0.000000
vt 0.000000 1.000000
vt 0.000000 0.000000
vt 1.000000 0.000000
vt 1.000000 1.000000
vt 0.000000 1.000000
vt 0.000000 0.000000
vt 1.000000 1.000000
vt 1.000000 0.000000
vt 0.000000 1.000000
vt 0.000000 0.000000
vt 1.000000 0.000000
vt 1.000000 1.000000
vt 0.000000 1.000000
vt 0.000000 0.000000
vt 1.000000 1.000000
vt 1.000000 0.000000
vt 0.000000 1.000000
vt 0.000000 0.000000
vt 1.000000 0.000000
vt 1.000000 1.000000
vt 0.000000 1.000000
vt 0.000000 0.000000
vt 1.000000 1.000000
vt 1.000000 0.000000
vt 0.000000 1.000000
vt 0.000000 0.000000
vt 1.000000 0.000000
vt 1.000000 1.000000
vt 0.000000 1.000000
vt 0.000000 0.000000
vt 1.000000 1.000000
vt 1.000000 0.000000
vt 0.000000 1.000000
vt 0.000000 0.000000
vt 1.000000 0.000000
vt 1.000000 1.000000
vt 0.000000 1.000000
vt 0.000000 0.000000
vt 1.000000 1.000000
vt 1.000000 0.000000
vt 0.000000 1.000000
vt 0.000000 0.000000
vt 1.000000 0.000000
vt 1.000000 1.000000
vt 0.000000 1.000000
vt 0.000000 0.000000
vt 1.000000 1.000000
vt 1.000000 0.000000
vt 0.000000 1.000000
vt 0.000000 0.000000
vt 1.000000 0.000000
vt 1.000000 1.000000
vt 0.000000 1.000000
vt 0.000000 0.000000
vt 1.000000 1.000000
vt 1.000000 0.000000
vt 0.000000 1.000000
vt 0.000000 0.000000
vt 1.000000 0.000000
vt 1.000000 1.000000
vt 0.000000 1.000000
vt 0.000000 0.000000
vt 1.000000 1.000000
vt 1.000000 0.000000
vt 0.000000 1.000000
vt 0.000000 0.000000
vt 1.000000 0.000000
vt 1.000000 1.000000
vt 0.000000 1.000000
vt 0.000000 0.000000
vt 1.000000 1.000000
vt 1.000000 0.000000
vt 0.000000 1.000000
vt 0.000000 0.000000
vt 1.000000 0.000000
vt 1.000000 1.000000
vt 0.000000 1.000000
vt 0.000000 0.000000
vt 1.000000 1.000000
vt 1.000000 0.000000
vt 0.000000 1.000000
vt 0.000000 0.000000
vt 1.000000 0.000000
vt 1.000000 1.000000
vt 0.000000 1.000000
vt 0.000000 0.000000
vt 1.000000 1.000000
vt 1.000000 0.000000
vt 0.000000 1.000000
vt 0.000000 0.000000
vt 1.000000 0.000000
vt 1.000000 1.000000
vt 0.000000 1.000000
vt 0.000000 0.000000
vt 1.000000 1.000000
vt 1.000000 0.000000
vt 0.000000 1.000000
vt 0.000000 0.000000
vt 1.000000 0.000000
vt 1.000000 1.000000
vt 0.000000 1.000000
vt 0.000000 0.000000
vt 1.000000 1.000000
vt 1.000000 0.000000
vt 0.000000 1.000000
vn 0.034714 0.992391 -0.118131
vn 0.248850 0.967135 -0.052188
vn 0.034714 0.992391 -0.118131
vn -0.181187 0.967193 -0.178068
vn -0.073145 -0.967135 0.243515
vn -0.073145 -0.967135 0.243515
vn -0.073145 -0.967135 0.243515
vn 0.243025 -0.967193 -0.073996
vn 0.243025 -0.967193 -0.073996
vn 0.243025 -0.967193 -0.073996
vn 0.118131 0.992391 0.034715
vn 0.052188 0.967135 0.248851
vn 0.118131 0.992391 0.034715
vn 0.178068 0.967193 -0.181187
vn -0.243516 -0.967135 -0.073145
vn -0.243516 -0.967135 -0.073145
vn -0.243516 -0.967135 -0.073145
vn 0.073996 -0.967193 0.243025
vn 0.073996 -0.967193 0.243025
vn 0.073996 -0.967193 0.243025
vn 0.034714 0.992391 -0.118131
vn 0.248851 0.967135 -0.052188
vn 0.034714 0.992391 -0.118131
vn -0.181187 0.967194 -0.178067
vn -0.073145 -0.967135 0.243516
vn -0.073145 -0.967135 0.243516
vn -0.073145 -0.967135 0.243516
vn 0.243025 -0.967193 -0.073995
vn 0.243025 -0.967193 -0.073995
vn 0.243025 -0.967193 -0.073995
vn 0.050224 0.992391 0.112417
vn -0.155511 0.967135 0.201163
vn 0.050224 0.992391 0.112417
vn 0.253406 0.967193 0.017956
vn -0.102326 -0.967135 -0.232765
vn -0.102326 -0.967135 -0.232765
vn -0.102326 -0.967135 -0.232765
vn -0.136930 -0.967193 0.213979
vn -0.136930 -0.967193 0.213979
vn -0.136930 -0.967193 0.213979
vn 0.112417 0.992391 -0.050224
vn 0.201163 0.967135 0.155511
vn 0.112417 0.992391 -0.050224
vn 0.017956 0.967193 -0.253406
vn -0.232765 -0.967135 0.102326
vn -0.232765 -0.967135 0.102326
vn -0.232765 -0.967135 0.102326
vn 0.213979 -0.967193 0.136930
vn 0.213979 -0.967193 0.136930
vn 0.213979 -0.967193 0.136930
vn -0.050224 0.992391 -0.112417
vn 0.155511 0.967135 -0.201163
vn -0.050224 0.992391 -0.112417
vn -0.253406 0.967193 -0.017956
vn 0.102326 -0.967135 0.232765
vn 0.102326 -0.967135 0.232765
vn 0.102326 -0.967135 0.232765
vn 0.136930 -0.967193 -0.213979
vn 0.136930 -0.967193 -0.213979
vn 0.136930 -0.967193 -0.213979
vn -0.112417 0.992391 0.050224
vn -0.201163 0.967135 -0.155511
vn -0.112417 0.992391 0.050224
vn -0.017956 0.967193 0.253406
vn 0.232765 -0.967135 -0.102326
vn 0.232765 -0.967135 -0.102326
vn 0.232765 -0.967135 -0.102326
vn -0.213979 -0.967193 -0.136930
vn -0.213979 -0.967193 -0.136930
vn -0.213979 -0.967193 -0.136930
vn 0.112417 0.992391 -0.050224
vn 0.201163 0.967135 0.155512
vn 0.112417 0.992391 -0.050224
vn 0.017956 0.967193 -0.253406
vn -0.232765 -0.967135 0.102326
vn -0.232765 -0.967135 0.102326
vn -0.232765 -0.967135 0.102326
vn 0.213979 -0.967193 0.136930
vn 0.213979 -0.967193 0.136930
vn 0.213979 -0.967193 0.136930
vn 0.050224 0.992391 0.112417
vn -0.155511 0.967135 0.201162
vn 0.050224 0.992391 0.112417
vn 0.253405 0.967193 0.017956
vn -0.102326 -0.967135 -0.232765
vn -0.102326 -0.967135 -0.232765
vn -0.102326 -0.967135 -0.232765
vn -0.136930 -0.967194 0.213979
vn -0.136930 -0.967194 0.213979
vn -0.136930 -0.967194 0.213979
vn -0.050224 0.992391 -0.112417
vn 0.155511 0.967135 -0.201163
vn -0.050224 0.992391 -0.112417
vn -0.253405 0.967193 -0.017956
vn 0.102326 -0.967135 0.232765
vn 0.102326 -0.967135 0.232765
vn 0.102326 -0.967135 0.232765
vn 0.136930 -0.967193 -0.213979
vn 0.136930 -0.967193 -0.213979
vn 0.136930 -0.967193 -0.213979
vn -0.112417 0.992391 0.050224
vn -0.201163 0.967135 -0.155511
vn -0.112417 0.992391 0.050224
vn -0.017956 0.967193 0.253406
vn 0.232765 -0.967135 -0.102325
vn 0.232765 -0.967135 -0.102325
vn 0.232765 -0.967135 -0.102325
vn -0.213979 -0.967193 -0.136930
vn -0.213979 -0.967193 -0.136930
vn -0.213979 -0.967193 -0.136930
vn -0.120341 0.992391 0.026041
vn -0.164897 0.967135 -0.193544
vn -0.120341 0.992391 0.026041
vn -0.069666 0.967193 0.244302
vn 0.248829 -0.967135 -0.052290
vn 0.248829 -0.967135 -0.052290
vn 0.248829 -0.967135 -0.052290
vn -0.181259 -0.967193 -0.177994
vn -0.181259 -0.967193 -0.177994
vn -0.181259 -0.967193 -0.177994
vn 0.105110 0.992391 0.064124
vn -0.014041 0.967135 0.253875
vn 0.105110 0.992391 0.064124
vn 0.218917 0.967193 -0.128888
vn -0.216264 -0.967135 -0.133717
vn -0.216264 -0.967135 -0.133717
vn -0.216264 -0.967135 -0.133717
vn 0.008532 -0.967193 0.253898
vn 0.008532 -0.967193 0.253898
vn 0.008532 -0.967193 0.253898
vn -0.064124 0.992391 0.105110
vn -0.253876 0.967135 -0.014041
vn -0.064124 0.992391 0.105110
vn 0.128888 0.967193 0.218917
vn 0.133716 -0.967135 -0.216264
vn 0.133716 -0.967135 -0.216264
vn 0.133716 -0.967135 -0.216264
vn -0.253898 -0.967193 0.008532
vn -0.253898 -0.967193 0.008532
vn -0.253898 -0.967193 0.008532
vn 0.064124 0.992391 -0.105110
vn 0.253876 0.967135 0.014041
vn 0.064124 0.992391 -0.105110
vn -0.128888 0.967193 -0.218918
vn -0.133716 -0.967135 0.216264
vn -0.133716 -0.967135 0.216264
vn -0.133716 -0.967135 0.216264
vn 0.253898 -0.967193 -0.008532
vn 0.253898 -0.967193 -0.008532
vn 0.253898 -0.967193 -0.008532
vn -0.064124 0.992391 0.105110
vn -0.253876 0.967135 -0.014042
vn -0.064124 0.992391 0.105110
vn 0.128888 0.967193 0.218917
vn 0.133716 -0.967135 -0.216264
vn 0.133716 -0.967135 -0.216264
vn 0.133716 -0.967135 -0.216264
vn -0.253898 -0.967194 0.008532
vn -0.253898 -0.967194 0.008532
vn -0.253898 -0.967194 0.008532
vn -0.105110 0.992391 -0.064124
vn 0.014041 0.967135 -0.253876
vn -0.105110 0.992391 -0.064124
vn -0.218917 0.967193 0.128888
vn 0.216264 -0.967135 0.133716
vn 0.216264 -0.967135 0.133716
vn 0.216264 -0.967135 0.133716
vn -0.008531 -0.967194 -0.253897
vn -0.008531 -0.967194 -0.253897
vn -0.008531 -0.967194 -0.253897
s 1
g polySurface2 group1
f 5/5/1 6/6/2 7/7/3
f 5/5/1 7/7/3 8/8/4
s off
f 1/1/5 4/3/6 2/2/7
f 1/1/8 3/4/9 4/3/10
s 4
f 13/9/11 14/10/12 15/11/13
f 13/9/11 15/11/13 16/12/14
s off
f 9/13/15 12/14/16 10/15/17
f 9/13/18 11/16/19 12/14/20
s 7
f 21/17/21 22/18/22 23/19/23
f 21/17/21 23/19/23 24/20/24
s off
f 17/21/25 20/22/26 18/23/27
f 17/21/28 19/24/29 20/22/30
s 10
f 29/25/31 30/26/32 31/27/33
f 29/25/31 31/27/33 32/28/34
s off
f 25/29/35 28/30/36 26/31/37
f 25/29/38 27/32/39 28/30/40
s 13
f 37/33/41 38/34/42 39/35/43
f 37/33/41 39/35/43 40/36/44
s off
f 33/37/45 36/38/46 34/39/47
f 33/37/48 35/40/49 36/38/50
s 16
f 45/41/51 46/42/52 47/43/53
f 45/41/51 47/43/53 48/44/54
s off
f 41/45/55 44/46/56 42/47/57
f 41/45/58 43/48/59 44/46/60
s 19
f 53/49/61 54/50/62 55/51/63
f 53/49/61 55/51/63 56/52/64
s off
f 49/53/65 52/54/66 50/55/67
f 49/53/68 51/56/69 52/54/70
s 22
f 61/57/71 62/58/72 63/59/73
f 61/57/71 63/59/73 64/60/74
s off
f 57/61/75 60/62/76 58/63/77
f 57/61/78 59/64/79 60/62/80
s 25
f 69/65/81 70/66/82 71/67/83
f 69/65/81 71/67/83 72/68/84
s off
f 65/69/85 68/70/86 66/71/87
f 65/69/88 67/72/89 68/70/90
s 28
f 77/73/91 78/74/92 79/75/93
f 77/73/91 79/75/93 80/76/94
s off
f 73/77/95 76/78/96 74/79/97
f 73/77/98 75/80/99 76/78/100
s 31
f 85/81/101 86/82/102 87/83/103
f 85/81/101 87/83/103 88/84/104
s off
f 81/85/105 84/86/106 82/87/107
f 81/85/108 83/88/109 84/86/110
s 34
f 93/89/111 94/90/112 95/91/113
f 93/89/111 95/91/113 96/92/114
s off
f 89/93/115 92/94/116 90/95/117
f 89/93/118 91/96/119 92/94/120
s 37
f 101/97/121 102/98/122 103/99/123
f 101/97/121 103/99/123 104/100/124
s off
f 97/101/125 100/102/126 98/103/127
f 97/101/128 99/104/129 100/102/130
s 40
f 109/105/131 110/106/132 111/107/133
f 109/105/131 111/107/133 112/108/134
s off
f 105/109/135 108/110/136 106/111/137
f 105/109/138 107/112/139 108/110/140
s 43
f 117/113/141 118/114/142 119/115/143
f 117/113/141 119/115/143 120/116/144
s off
f 113/117/145 116/118/146 114/119/147
f 113/117/148 115/120/149 116/118/150
s 46
f 125/121/151 126/122/152 127/123/153
f 125/121/151 127/123/153 128/124/154
s off
f 121/125/155 124/126/156 122/127/157
f 121/125/158 123/128/159 124/126/160
s 49
f 133/129/161 134/130/162 135/131/163
f 133/129/161 135/131/163 136/132/164
s off
f 129/133/165 132/134/166 130/135/167
f 129/133/168 131/136/169 132/134/170
g default
v -0.987168 53.473511 -0.000000
v -0.493584 53.473511 0.854912
v 0.493584 53.473511 0.854912
v 0.987167 53.473511 -0.000000
v 0.493584 53.473511 -0.854912
v -0.493584 53.473511 -0.854912
v -0.000000 104.031776 0.000000
v -0.672885 23.473513 -1.165472
v -1.345771 23.473513 -0.000000
v -0.672886 23.473513 1.165472
v 0.672885 23.473513 1.165472
v 1.345771 23.473513 0.000000
v 0.672886 23.473513 -1.165472
v 1.809751 3.473513 0.000000
v 0.904876 3.473513 -1.567291
v -0.904875 3.473513 -1.567291
v -1.809751 3.473513 -0.000000
v -0.904876 3.473513 1.567291
v 0.904876 3.473513 1.567291
v 1.279098 -0.132416 -2.215461
v -1.279097 -0.132416 -2.215462
v -2.558195 -0.132416 -0.000000
v -1.279097 -0.132416 2.215461
v 1.279097 -0.132416 2.215461
v 2.558194 -0.132416 0.000000
vt 0.000000 0.000000
vt 0.168027 0.000000
vt 0.334233 0.000000
vt 0.500438 0.000000
vt 0.666643 0.000000
vt 0.832850 0.000000
vt 1.000000 0.000000
vt 0.500438 1.000000
vt 0.000000 0.000000
vt 0.168027 0.000000
vt 0.168027 1.000000
vt 0.000000 1.000000
vt 0.334233 0.000000
vt 0.334233 1.000000
vt 0.500438 0.000000
vt 0.500438 1.000000
vt 0.666643 0.000000
vt 0.666643 1.000000
vt 0.832850 0.000000
vt 0.832850 1.000000
vt 1.000000 0.000000
vt 1.000000 1.000000
vt 0.000000 0.000000
vt 0.168027 0.000000
vt 0.168027 1.000000
vt 0.000000 1.000000
vt 0.334233 0.000000
vt 0.334233 1.000000
vt 0.500438 0.000000
vt 0.500438 1.000000
vt 0.666643 0.000000
vt 0.666643 1.000000
vt 0.832850 0.000000
vt 0.832850 1.000000
vt 1.000000 0.000000
vt 1.000000 1.000000
vt 0.000000 0.000000
vt 0.168027 0.000000
vt 0.168027 0.374081
vt 0.000000 0.374081
vt 0.334233 0.000000
vt 0.334233 0.374081
vt 0.500438 0.000000
vt 0.500438 0.374081
vt 0.666643 0.000000
vt 0.666643 0.374081
vt 0.832850 0.000000
vt 0.832850 0.374081
vt 1.000000 0.000000
vt 1.000000 0.374081
vt 0.761154 0.177934
vt 0.831770 0.177934
vt 0.867078 0.107318
vt 0.725846 0.107318
vt 0.831770 0.036702
vt 0.761154 0.036702
vn -0.999809 0.019522 -0.000000
vn -0.499905 0.019522 0.865860
vn 0.000002 1.000000 -0.000004
vn 0.499905 0.019522 0.865860
vn 0.999809 0.019522 0.000000
vn 0.499905 0.019522 -0.865860
vn -0.499905 0.019522 -0.865860
vn -0.499964 0.011953 -0.865964
vn -0.999929 0.011953 -0.000000
vn -0.999929 0.011953 -0.000000
vn -0.499964 0.011953 -0.865964
vn -0.499964 0.011953 0.865963
vn -0.499964 0.011953 0.865963
vn 0.499964 0.011953 0.865964
vn 0.499964 0.011953 0.865964
vn 0.999929 0.011953 0.000000
vn 0.999929 0.011953 0.000000
vn 0.499964 0.011953 -0.865963
vn 0.499964 0.011953 -0.865963
vn 0.999731 0.023193 0.000000
vn 0.499866 0.023193 -0.865792
vn 0.499866 0.023193 -0.865792
vn 0.999731 0.023193 0.000000
vn -0.499865 0.023193 -0.865793
vn -0.499865 0.023193 -0.865793
vn -0.999731 0.023193 -0.000000
vn -0.999731 0.023193 -0.000000
vn -0.499866 0.023193 0.865792
vn -0.499866 0.023193 0.865792
vn 0.499865 0.023193 0.865793
vn 0.499865 0.023193 0.865793
vn 0.489566 0.203228 -0.847953
vn -0.489566 0.203228 -0.847953
vn -0.489566 0.203228 -0.847953
vn 0.489566 0.203228 -0.847953
vn -0.979132 0.203228 -0.000000
vn -0.979132 0.203228 -0.000000
vn -0.489566 0.203228 0.847953
vn -0.489566 0.203228 0.847953
vn 0.489566 0.203228 0.847953
vn 0.489566 0.203228 0.847953
vn 0.979132 0.203228 0.000000
vn 0.979132 0.203228 0.000000
vn 0.000000 -1.000000 -0.000000
vn 0.000000 -1.000000 -0.000000
vn 0.000000 -1.000000 -0.000000
vn 0.000000 -1.000000 -0.000000
vn 0.000000 -1.000000 0.000000
vn 0.000000 -1.000000 0.000000
vn 0.000000 -1.000000 0.000000
vn 0.000000 -1.000000 0.000000
s 1
g group1 polySurface1
f 137/137/171 138/138/172 143/144/173
f 138/138/172 139/139/174 143/144/173
f 139/139/174 140/140/175 143/144/173
f 140/140/175 141/141/176 143/144/173
f 141/141/176 142/142/177 143/144/173
f 142/142/177 137/143/171 143/144/173
s 2
f 144/145/178 145/146/179 137/147/180 142/148/181
f 145/146/179 146/149/182 138/150/183 137/147/180
f 146/149/182 147/151/184 139/152/185 138/150/183
f 147/151/184 148/153/186 140/154/187 139/152/185
f 148/153/186 149/155/188 141/156/189 140/154/187
f 149/155/188 144/157/178 142/158/181 141/156/189
s 3
f 150/159/190 151/160/191 149/161/192 148/162/193
f 151/160/191 152/163/194 144/164/195 149/161/192
f 152/163/194 153/165/196 145/166/197 144/164/195
f 153/165/196 154/167/198 146/168/199 145/166/197
f 154/167/198 155/169/200 147/170/201 146/168/199
f 155/169/200 150/171/190 148/172/193 147/170/201
s 4
f 156/173/202 157/174/203 152/175/204 151/176/205
f 157/174/203 158/177/206 153/178/207 152/175/204
f 158/177/206 159/179/208 154/180/209 153/178/207
f 159/179/208 160/181/210 155/182/211 154/180/209
f 160/181/210 161/183/212 150/184/213 155/182/211
f 161/183/212 156/185/202 151/186/205 150/184/213
s off
f 157/187/214 156/188/215 161/189/216 158/190/217
f 158/190/218 161/189/219 160/191/220 159/192/221
