# This file uses centimeters as units for non-parametric coordinates.

g default
v 0.517966 2.948455 0.826555
v 0.506125 2.903665 -0.672730
v -0.047752 1.477605 -0.626400
v -0.035911 1.522395 0.872884
v -0.185681 0.797652 0.896049
v -0.197522 0.752862 -0.603236
v -0.199478 0.616467 0.901840
v -0.211320 0.571676 -0.597445
v 0.219275 2.247138 0.849719
v 0.207434 2.202348 -0.649565
v -0.750000 0.000000 0.000000
v -0.750000 3.000000 0.000000
v 0.750000 3.000000 0.000000
v 0.750000 0.000000 0.000000
vt 1.000000 1.000000
vt 0.500000 1.000000
vt 0.500000 0.500000
vt 1.000000 0.500000
vt 1.000000 0.250000
vt 0.500000 0.250000
vt 1.000000 0.187500
vt 0.500000 0.187500
vt 1.000000 0.750000
vt 0.500000 0.750000
vt 0.000000 0.000000
vt 0.500000 0.000000
vt 0.500000 1.000000
vt 0.000000 1.000000
vn -0.943259 0.332048 -0.002470
vn -0.943259 0.332048 -0.002470
vn -0.943259 0.332048 -0.002470
vn -0.943259 0.332048 -0.002470
vn -0.979296 0.202428 0.001687
vn -0.979296 0.202428 0.001687
vn -0.979296 0.202428 0.001687
vn -0.979296 0.202428 0.001687
vn -0.997084 0.076106 0.005601
vn -0.997084 0.076106 0.005601
vn -0.997084 0.076106 0.005601
vn -0.997084 0.076106 0.005601
vn -0.920076 0.391714 -0.004435
vn -0.920076 0.391714 -0.004435
vn -0.920076 0.391714 -0.004435
vn -0.920076 0.391714 -0.004435
vn 0.000000 0.000000 1.000000
vn 0.000000 0.000000 1.000000
vn 0.000000 0.000000 1.000000
vn 0.000000 0.000000 1.000000
s off
g polySurface3
f 3/3/1 4/4/2 9/9/3 10/10/4
f 6/6/5 5/5/6 4/4/7 3/3/8
f 8/8/9 7/7/10 5/5/11 6/6/12
f 10/10/13 9/9/14 1/1/15 2/2/16
f 11/11/17 14/12/18 13/13/19 12/14/20
