# This file uses centimeters as units for non-parametric coordinates.

g default
v -7.305596 40.145634 -17.359648
v -21.028948 25.185310 42.312153
v 39.589405 22.917160 47.066986
v 49.436974 9.941783 -14.521852
v 17.251608 45.466301 -7.557190
v -42.613388 30.505976 -20.411615
v -46.486481 28.237827 40.269447
v 15.239004 15.262447 49.220642
v -4.732879 42.058247 18.229891
v 42.396759 27.097919 -20.857847
v -2.887578 24.829771 -61.435196
v -48.101055 11.854393 -18.471249
v 11.047895 48.418304 -19.750654
v -55.628304 30.442482 11.346376
v -15.334787 27.717152 72.291412
v 50.293365 12.126373 36.105659
v 19.909176 53.738972 10.759605
v -12.153872 35.763145 -55.457481
v -72.506706 33.037819 -14.282236
v -35.370708 17.447041 50.812935
v -20.769093 50.330917 8.988277
v 51.093342 32.355091 24.753162
v 56.071022 29.629763 -48.137772
v -18.047729 14.038983 -59.222637
v 28.039780 59.089027 -6.594738
v -58.450661 36.208904 -42.490868
v -81.063187 32.740028 47.711662
v 9.305511 12.895654 78.251389
v 7.001668 64.409691 27.940948
v 41.636654 41.529568 -59.062191
v -48.885071 38.060692 -80.361023
v -78.107841 18.216320 10.442102
v -26.285404 61.001637 -11.781237
v 20.653782 38.121513 69.248642
v 93.381210 34.652637 11.295699
v 40.108490 14.808266 -67.832008
v 12.607191 71.663567 -21.118389
v -60.781178 52.127178 10.622667
v -18.873672 49.165249 78.066483
v 53.531982 32.220959 40.765018
v 21.299435 76.984230 12.298854
v -11.505150 57.447842 -60.620331
v -78.332611 54.485912 -17.736790
v -39.982491 37.541622 54.118942
v -22.838497 73.576172 9.128573
v 54.748779 54.039787 28.456360
v 62.389030 51.077858 -50.578655
v -17.792812 34.133572 -64.891266
v 19.742657 82.283943 -12.777044
v -56.613113 63.604454 -16.598009
v -49.202057 60.772442 58.960091
v 28.662762 44.571354 57.597336
v 13.062701 87.604614 19.554823
v 15.773244 68.925125 -56.848419
v -59.669132 66.093109 -48.339729
v -57.174561 49.892017 29.497047
v -23.445053 84.196556 -1.831579
v 34.912041 65.517067 47.557201
v 74.890991 62.685051 -16.984520
v 12.187891 46.483963 -63.170101
v 1.243944 90.602028 -19.219379
v -38.563911 75.303856 29.109011
v 14.726398 72.984482 61.143547
v 51.863674 59.716076 9.291137
v 19.235432 95.922699 0.964409
v -29.666553 80.624519 -38.136665
v -60.922989 78.305153 15.613710
v -8.536188 65.036736 51.993263
v -12.655797 92.514648 14.517669
v 48.315956 77.216461 0.278875
v 25.415279 74.897095 -57.527927
v -35.573566 61.628685 -38.867558
v 1.003083 97.547340 -15.498019
v -31.096958 85.211273 23.472765
v 11.874992 83.340996 49.304596
v 41.821548 72.641693 7.492136
v 15.510965 102.868004 0.777676
v -23.922356 90.531937 -30.752439
v -49.126759 88.661667 12.590500
v -6.883366 77.962357 41.926048
v -10.205315 99.459953 11.706680
v 38.960762 87.123886 0.224877
v 20.494234 85.253609 -46.389061
v -28.685623 74.554306 -31.341810
vt 0.000000 0.000000
vt 1.000000 0.000000
vt 1.000000 1.000000
vt 0.000000 1.000000
vt 0.000000 0.000000
vt 1.000000 0.000000
vt 1.000000 1.000000
vt 0.000000 1.000000
vt 0.000000 0.000000
vt 1.000000 0.000000
vt 1.000000 1.000000
vt 0.000000 1.000000
vt 0.000000 0.000000
vt 1.000000 0.000000
vt 1.000000 1.000000
vt 0.000000 1.000000
vt 0.000000 0.000000
vt 1.000000 0.000000
vt 1.000000 1.000000
vt 0.000000 1.000000
vt 0.000000 0.000000
vt 1.000000 0.000000
vt 1.000000 1.000000
vt 0.000000 1.000000
vt 0.000000 0.000000
vt 1.000000 0.000000
vt 1.000000 1.000000
vt 0.000000 1.000000
vt 0.000000 0.000000
vt 1.000000 0.000000
vt 1.000000 1.000000
vt 0.000000 1.000000
vt 0.000000 0.000000
vt 1.000000 0.000000
vt 1.000000 1.000000
vt 0.000000 1.000000
vt 0.000000 0.000000
vt 1.000000 0.000000
vt 1.000000 1.000000
vt 0.000000 1.000000
vt 0.000000 0.000000
vt 1.000000 0.000000
vt 1.000000 1.000000
vt 0.000000 1.000000
vt 0.000000 0.000000
vt 1.000000 0.000000
vt 1.000000 1.000000
vt 0.000000 1.000000
vt 0.000000 0.000000
vt 1.000000 0.000000
vt 1.000000 1.000000
vt 0.000000 1.000000
vt 0.000000 0.000000
vt 1.000000 0.000000
vt 1.000000 1.000000
vt 0.000000 1.000000
vt 0.000000 0.000000
vt 1.000000 0.000000
vt 1.000000 1.000000
vt 0.000000 1.000000
vt 0.000000 0.000000
vt 1.000000 0.000000
vt 1.000000 1.000000
vt 0.000000 1.000000
vt 0.000000 0.000000
vt 1.000000 0.000000
vt 1.000000 1.000000
vt 0.000000 1.000000
vt 0.000000 0.000000
vt 1.000000 0.000000
vt 1.000000 1.000000
vt 0.000000 1.000000
vt 0.000000 0.000000
vt 1.000000 0.000000
vt 1.000000 1.000000
vt 0.000000 1.000000
vt 0.000000 0.000000
vt 1.000000 0.000000
vt 1.000000 1.000000
vt 0.000000 1.000000
vt 0.000000 0.000000
vt 1.000000 0.000000
vt 1.000000 1.000000
vt 0.000000 1.000000
vn 0.255259 0.964186 0.072037
vn 0.016895 0.968918 0.246803
vn 0.255259 0.964186 0.072037
vn 0.471318 0.875199 -0.109025
vn -0.068318 0.964185 0.256279
vn -0.246532 0.968918 0.020481
vn -0.068318 0.964185 0.256279
vn 0.115865 0.875199 0.469683
vn -0.159113 0.964185 -0.212202
vn 0.136398 0.968918 -0.206380
vn -0.159113 0.964185 -0.212202
vn -0.440720 0.875199 -0.199480
vn 0.100197 0.964186 0.245575
vn -0.184210 0.968918 0.165118
vn 0.100197 0.964186 0.245575
vn 0.375848 0.875199 0.304573
vn -0.244092 0.964185 0.103756
vn -0.167778 0.968918 -0.181790
vn -0.244092 0.964185 0.103756
vn -0.299077 0.875199 0.380236
vn 0.069456 0.964185 -0.255973
vn 0.246620 0.968918 -0.019385
vn 0.069456 0.964185 -0.255973
vn -0.113777 0.875199 -0.470193
vn -0.113548 0.964185 0.239694
vn -0.246169 0.968918 -0.024450
vn -0.113548 0.964185 0.239694
vn 0.028996 0.875199 0.482893
vn -0.241320 0.964185 -0.110051
vn 0.020869 0.968918 -0.246499
vn -0.241320 0.964185 -0.110051
vn -0.482421 0.875199 0.036013
vn 0.235740 0.964185 -0.121545
vn 0.180778 0.968918 0.168869
vn 0.235740 0.964185 -0.121545
vn 0.270102 0.875199 -0.401337
vn 0.093236 0.964185 0.248301
vn -0.188790 0.968918 0.159860
vn 0.093236 0.964185 0.248301
vn 0.367115 0.875199 0.315044
vn -0.246919 0.964185 0.096836
vn -0.162588 0.968918 -0.186447
vn -0.246919 0.964185 0.096836
vn -0.309674 0.875199 0.371657
vn 0.076642 0.964185 -0.253914
vn 0.247068 0.968918 -0.012428
vn 0.076642 0.964185 -0.253914
vn -0.100481 0.875199 -0.473213
vn -0.026217 0.964185 0.263930
vn -0.240029 0.968918 0.059860
vn -0.026217 0.964185 0.263930
vn 0.189887 0.875199 0.444937
vn -0.264283 0.964185 -0.022377
vn -0.063342 0.968918 -0.239134
vn -0.264283 0.964185 -0.022377
vn -0.442130 0.875199 0.196335
vn 0.181054 0.964185 -0.193819
vn 0.227079 0.968918 0.098144
vn 0.181054 0.964185 -0.193819
vn 0.119208 0.875199 -0.468845
vn 0.196215 0.964185 0.178454
vn -0.095108 0.968918 0.228367
vn 0.196215 0.964185 0.178454
vn 0.470393 0.875199 0.112948
vn -0.175583 0.964185 0.198789
vn -0.229726 0.968918 -0.091778
vn -0.175583 0.964185 0.198789
vn -0.106097 0.875199 0.471985
vn -0.047591 0.964185 -0.260924
vn 0.214211 0.968918 -0.123737
vn -0.047591 0.964185 -0.260924
vn -0.305235 0.875199 -0.375311
vn 0.196215 0.964185 0.178454
vn -0.095109 0.968918 0.228367
vn 0.196215 0.964185 0.178454
vn 0.470393 0.875199 0.112948
vn -0.175583 0.964185 0.198788
vn -0.229726 0.968918 -0.091779
vn -0.175583 0.964185 0.198788
vn -0.106097 0.875199 0.471985
vn -0.047591 0.964186 -0.260924
vn 0.214211 0.968918 -0.123737
vn -0.047591 0.964186 -0.260924
vn -0.305235 0.875199 -0.375311
s 1
g polySurface23 group1
f 1/1/1 2/2/2 3/3/3
f 1/1/1 3/3/3 4/4/4
s 2
f 5/5/5 6/6/6 7/7/7
f 5/5/5 7/7/7 8/8/8
s 3
f 9/9/9 10/10/10 11/11/11
f 9/9/9 11/11/11 12/12/12
s 4
f 13/13/13 14/14/14 15/15/15
f 13/13/13 15/15/15 16/16/16
s 5
f 17/17/17 18/18/18 19/19/19
f 17/17/17 19/19/19 20/20/20
s 6
f 21/21/21 22/22/22 23/23/23
f 21/21/21 23/23/23 24/24/24
s 7
f 25/25/25 26/26/26 27/27/27
f 25/25/25 27/27/27 28/28/28
s 8
f 29/29/29 30/30/30 31/31/31
f 29/29/29 31/31/31 32/32/32
s 9
f 33/33/33 34/34/34 35/35/35
f 33/33/33 35/35/35 36/36/36
s 10
f 37/37/37 38/38/38 39/39/39
f 37/37/37 39/39/39 40/40/40
s 11
f 41/41/41 42/42/42 43/43/43
f 41/41/41 43/43/43 44/44/44
s 12
f 45/45/45 46/46/46 47/47/47
f 45/45/45 47/47/47 48/48/48
s 13
f 49/49/49 50/50/50 51/51/51
f 49/49/49 51/51/51 52/52/52
s 14
f 53/53/53 54/54/54 55/55/55
f 53/53/53 55/55/55 56/56/56
s 15
f 57/57/57 58/58/58 59/59/59
f 57/57/57 59/59/59 60/60/60
s 16
f 61/61/61 62/62/62 63/63/63
f 61/61/61 63/63/63 64/64/64
s 17
f 65/65/65 66/66/66 67/67/67
f 65/65/65 67/67/67 68/68/68
s 18
f 69/69/69 70/70/70 71/71/71
f 69/69/69 71/71/71 72/72/72
s 19
f 73/73/73 74/74/74 75/75/75
f 73/73/73 75/75/75 76/76/76
s 20
f 77/77/77 78/78/78 79/79/79
f 77/77/77 79/79/79 80/80/80
s 21
f 81/81/81 82/82/82 83/83/83
f 81/81/81 83/83/83 84/84/84
g default
v -1.106648 55.992134 -0.000000
v -0.553324 55.992134 0.958385
v 0.553323 55.992134 0.958385
v 1.106647 55.992134 -0.000000
v 0.553324 55.992134 -0.958385
v -0.553324 55.992134 -0.958385
v -0.000000 98.452347 0.000000
v -0.754327 24.515175 -1.306533
v -1.508654 24.515175 -0.000000
v -0.754327 24.515175 1.306533
v 0.754327 24.515175 1.306533
v 1.508654 24.515175 0.000000
v 0.754327 24.515175 -1.306533
v 2.028791 3.530538 0.000000
v 1.014396 3.530538 -1.756984
v -1.014395 3.530538 -1.756985
v -2.028791 3.530538 -0.000000
v -1.014396 3.530538 1.756984
v 1.014395 3.530538 1.756984
v 1.433911 -0.252917 -2.483605
v -1.433910 -0.252917 -2.483606
v -2.867821 -0.252917 -0.000000
v -1.433910 -0.252917 2.483605
v 1.433910 -0.252917 2.483605
v 2.867821 -0.252917 0.000000
vt 0.000000 0.000000
vt 0.168611 0.000000
vt 0.334582 0.000000
vt 0.500553 0.000000
vt 0.666524 0.000000
vt 0.832496 0.000000
vt 1.000000 0.000000
vt 0.500553 1.000000
vt 0.000000 0.000000
vt 0.168611 0.000000
vt 0.168611 1.000000
vt 0.000000 1.000000
vt 0.334582 0.000000
vt 0.334582 1.000000
vt 0.500553 0.000000
vt 0.500553 1.000000
vt 0.666524 0.000000
vt 0.666524 1.000000
vt 0.832496 0.000000
vt 0.832496 1.000000
vt 1.000000 0.000000
vt 1.000000 1.000000
vt 0.000000 0.000000
vt 0.168611 0.000000
vt 0.168611 1.000000
vt 0.000000 1.000000
vt 0.334582 0.000000
vt 0.334582 1.000000
vt 0.500553 0.000000
vt 0.500553 1.000000
vt 0.666524 0.000000
vt 0.666524 1.000000
vt 0.832496 0.000000
vt 0.832496 1.000000
vt 1.000000 0.000000
vt 1.000000 1.000000
vt 0.000000 0.000000
vt 0.168611 0.000000
vt 0.168611 0.487603
vt 0.000000 0.487603
vt 0.334582 0.000000
vt 0.334582 0.487603
vt 0.500553 0.000000
vt 0.500553 0.487603
vt 0.666524 0.000000
vt 0.666524 0.487603
vt 0.832496 0.000000
vt 0.832496 0.487603
vt 1.000000 0.000000
vt 1.000000 0.487603
vt 0.761154 0.177934
vt 0.831770 0.177934
vt 0.867078 0.107318
vt 0.725846 0.107318
vt 0.831770 0.036702
vt 0.761154 0.036702
vn -0.999660 0.026054 -0.000000
vn -0.499830 0.026054 0.865731
vn 0.000001 1.000000 -0.000003
vn 0.499830 0.026054 0.865731
vn 0.999661 0.026054 0.000000
vn 0.499830 0.026054 -0.865731
vn -0.499830 0.026054 -0.865732
vn -0.499959 0.012770 -0.865955
vn -0.999918 0.012770 -0.000000
vn -0.999918 0.012770 -0.000000
vn -0.499959 0.012770 -0.865955
vn -0.499959 0.012770 0.865955
vn -0.499959 0.012770 0.865955
vn 0.499959 0.012770 0.865955
vn 0.499959 0.012770 0.865955
vn 0.999918 0.012770 0.000000
vn 0.999918 0.012770 0.000000
vn 0.499959 0.012770 -0.865955
vn 0.499959 0.012770 -0.865955
vn 0.999693 0.024779 0.000000
vn 0.499847 0.024779 -0.865759
vn 0.499847 0.024779 -0.865759
vn 0.999693 0.024779 0.000000
vn -0.499846 0.024779 -0.865760
vn -0.499846 0.024779 -0.865760
vn -0.999693 0.024779 -0.000000
vn -0.999693 0.024779 -0.000000
vn -0.499847 0.024779 0.865759
vn -0.499847 0.024779 0.865759
vn 0.499846 0.024779 0.865759
vn 0.499846 0.024779 0.865759
vn 0.488141 0.216503 -0.845485
vn -0.488141 0.216503 -0.845485
vn -0.488141 0.216503 -0.845485
vn 0.488141 0.216503 -0.845485
vn -0.976282 0.216503 -0.000000
vn -0.976282 0.216503 -0.000000
vn -0.488141 0.216503 0.845485
vn -0.488141 0.216503 0.845485
vn 0.488141 0.216503 0.845485
vn 0.488141 0.216503 0.845485
vn 0.976282 0.216503 0.000000
vn 0.976282 0.216503 0.000000
vn 0.000000 -1.000000 -0.000000
vn 0.000000 -1.000000 -0.000000
vn 0.000000 -1.000000 -0.000000
vn 0.000000 -1.000000 -0.000000
vn 0.000000 -1.000000 -0.000000
vn 0.000000 -1.000000 -0.000000
vn 0.000000 -1.000000 -0.000000
vn 0.000000 -1.000000 -0.000000
s 1
g group1 polySurface1
f 85/85/85 86/86/86 91/92/87
f 86/86/86 87/87/88 91/92/87
f 87/87/88 88/88/89 91/92/87
f 88/88/89 89/89/90 91/92/87
f 89/89/90 90/90/91 91/92/87
f 90/90/91 85/91/85 91/92/87
s 2
f 92/93/92 93/94/93 85/95/94 90/96/95
f 93/94/93 94/97/96 86/98/97 85/95/94
f 94/97/96 95/99/98 87/100/99 86/98/97
f 95/99/98 96/101/100 88/102/101 87/100/99
f 96/101/100 97/103/102 89/104/103 88/102/101
f 97/103/102 92/105/92 90/106/95 89/104/103
s 3
f 98/107/104 99/108/105 97/109/106 96/110/107
f 99/108/105 100/111/108 92/112/109 97/109/106
f 100/111/108 101/113/110 93/114/111 92/112/109
f 101/113/110 102/115/112 94/116/113 93/114/111
f 102/115/112 103/117/114 95/118/115 94/116/113
f 103/117/114 98/119/104 96/120/107 95/118/115
s 4
f 104/121/116 105/122/117 100/123/118 99/124/119
f 105/122/117 106/125/120 101/126/121 100/123/118
f 106/125/120 107/127/122 102/128/123 101/126/121
f 107/127/122 108/129/124 103/130/125 102/128/123
f 108/129/124 109/131/126 98/132/127 103/130/125
f 109/131/126 104/133/116 99/134/119 98/132/127
s off
f 105/135/128 104/136/129 109/137/130 106/138/131
f 106/138/132 109/137/133 108/139/134 107/140/135
